<svg width="24" height="24" viewBox="0 0 24 24" fill="none" xmlns="http://www.w3.org/2000/svg">
<path d="M7 15C7 14.4477 7.44772 14 8 14C8.55229 14 9 14.4477 9 15C9 15.5523 8.55229 16 8 16C7.44772 16 7 15.5523 7 15Z" fill="white"/>
<path d="M18 14C17.4477 14 17 14.4477 17 15C17 15.5523 17.4477 16 18 16C18.5523 16 19 15.5523 19 15C19 14.4477 18.5523 14 18 14Z" fill="white"/>
<path fill-rule="evenodd" clip-rule="evenodd" d="M7.0791 9.02927C7.40366 8.54243 7.95007 8.25 8.53518 8.25H17.4648C18.0499 8.25 18.5963 8.54243 18.9209 9.02927L21.4561 12.8321C21.6477 13.1195 21.75 13.4573 21.75 13.8028V17C21.75 17.9665 20.9665 18.75 20 18.75H18.9685C18.9891 18.8299 19 18.9137 19 19V20C19 20.5523 18.5523 21 18 21C17.4477 21 17 20.5523 17 20V19C17 18.9137 17.0109 18.8299 17.0315 18.75H8.9685C8.98906 18.8299 9 18.9137 9 19V20C9 20.5523 8.55229 21 8 21C7.44772 21 7 20.5523 7 20V19C7 18.9137 7.01094 18.8299 7.0315 18.75H6C5.0335 18.75 4.25 17.9665 4.25 17V13.8028C4.25 13.4573 4.35227 13.1195 4.54391 12.8321L7.0791 9.02927ZM8.53518 9.75C8.4516 9.75 8.37354 9.79178 8.32717 9.86133L5.79199 13.6641C5.76461 13.7052 5.75 13.7534 5.75 13.8028V17C5.75 17.1381 5.86193 17.25 6 17.25H20C20.1381 17.25 20.25 17.1381 20.25 17V13.8028C20.25 13.7534 20.2354 13.7052 20.208 13.6641L17.6728 9.86133C17.6265 9.79178 17.5484 9.75 17.4648 9.75H8.53518Z" fill="white"/>
<path d="M2.5 3C2.5 2.72386 2.27614 2.5 2 2.5C1.72386 2.5 1.5 2.72386 1.5 3V20C1.5 20.2761 1.72386 20.5 2 20.5C2.27614 20.5 2.5 20.2761 2.5 20V7.79592L9 5.14286L2.5 3.15306V3Z" fill="white"/>
</svg>
