<svg width="24" height="24" viewBox="0 0 24 24" fill="none" xmlns="http://www.w3.org/2000/svg">
<path d="M11.6324 6.03379C10.8081 6.03379 9.53202 5.09065 8.18823 5.12474C6.41534 5.14747 4.78925 6.15878 3.87457 7.76097C2.03392 10.9767 3.40029 15.7265 5.19577 18.34C6.07657 19.6126 7.11546 21.0444 8.49313 20.9989C9.81433 20.9421 10.3112 20.1354 11.9147 20.1354C13.5069 20.1354 13.9586 20.9989 15.3589 20.9649C16.7817 20.9421 17.6851 19.6695 18.5546 18.3854C19.5596 16.9082 19.9774 15.4765 20 15.397C19.9661 15.3856 17.2334 14.3288 17.1995 11.1472C17.1769 8.48821 19.3563 7.21555 19.458 7.15873C18.2158 5.32928 16.3074 5.12474 15.6412 5.07929C13.9021 4.94293 12.4454 6.03379 11.6324 6.03379ZM14.5684 3.3521C15.3024 2.46579 15.788 1.22721 15.6525 0C14.6023 0.0454523 13.3375 0.70451 12.5809 1.59083C11.9034 2.37488 11.3162 3.63618 11.4743 4.84067C12.6374 4.93157 13.8344 4.23842 14.5684 3.3521Z" fill="white"/>
</svg>
