<svg width="24" height="24" viewBox="0 0 24 24" fill="none" xmlns="http://www.w3.org/2000/svg">
<path d="M19.6132 20.4838C19.3269 20.8199 18.818 20.818 18.5058 20.5058C18.1937 20.1937 18.197 19.6897 18.4781 19.3493C19.3607 18.2806 19.9678 17.0065 20.2398 15.639C20.564 14.0093 20.3976 12.3201 19.7618 10.785C19.1259 9.24985 18.0491 7.93775 16.6675 7.01461C15.2859 6.09147 13.6616 5.59874 12 5.59874C10.3384 5.59874 8.71409 6.09147 7.33251 7.01461C5.95093 7.93775 4.87412 9.24985 4.23825 10.785C3.60238 12.3201 3.43601 14.0093 3.76017 15.639C4.03219 17.0065 4.63935 18.2806 5.52188 19.3493C5.80299 19.6897 5.80635 20.1937 5.49418 20.5058C5.182 20.818 4.6731 20.8199 4.38685 20.4838C3.28342 19.1882 2.52588 17.6287 2.19215 15.9509C1.8063 14.0111 2.00433 12.0004 2.76121 10.1732C3.51809 8.3459 4.79981 6.78412 6.4443 5.6853C8.08879 4.58649 10.0222 4 12 4C13.9778 4 15.9112 4.58649 17.5557 5.6853C19.2002 6.78412 20.4819 8.3459 21.2388 10.1732C21.9957 12.0004 22.1937 14.0111 21.8079 15.9509C21.4741 17.6287 20.7166 19.1882 19.6132 20.4838Z" fill="#D9D9D9"/>
<path d="M16.9499 9.05023L11.548 12.0513C10.6611 12.2561 10 13.0508 10 14C10 15.1045 10.8954 16 12 16C12.5523 16 13.0525 15.7759 13.4145 15.4139C13.6743 15.154 13.8629 14.823 13.9486 14.4525L16.9499 9.05023Z" fill="#D9D9D9"/>
</svg>
