<svg width="24" height="24" viewBox="0 0 24 24" fill="none" xmlns="http://www.w3.org/2000/svg">
<path fill-rule="evenodd" clip-rule="evenodd" d="M12 2.25C17.3848 2.25 21.75 6.61522 21.75 12C21.75 17.3848 17.3848 21.75 12 21.75C6.61522 21.75 2.25 17.3848 2.25 12C2.25 6.61522 6.61522 2.25 12 2.25ZM20.25 12C20.25 7.44365 16.5563 3.75 12 3.75C7.44365 3.75 3.75 7.44365 3.75 12C3.75 16.5563 7.44365 20.25 12 20.25C16.5563 20.25 20.25 16.5563 20.25 12Z" fill="white"/>
<path fill-rule="evenodd" clip-rule="evenodd" d="M8.5 11.25C8.08579 11.25 7.75 11.5858 7.75 12C7.75 12.4142 8.08579 12.75 8.5 12.75L13.6893 12.75L11.9697 14.4697C11.6768 14.7626 11.6768 15.2374 11.9697 15.5303C12.2626 15.8232 12.7374 15.8232 13.0303 15.5303L16.0303 12.5303C16.3232 12.2374 16.3232 11.7626 16.0303 11.4697L13.0303 8.46967C12.7374 8.17678 12.2626 8.17678 11.9697 8.46967C11.6768 8.76256 11.6768 9.23744 11.9697 9.53033L13.6893 11.25L8.5 11.25Z" fill="white"/>
</svg>
