<svg width="24" height="24" viewBox="0 0 24 24" fill="none" xmlns="http://www.w3.org/2000/svg">
<path fill-rule="evenodd" clip-rule="evenodd" d="M7.46967 13.4697C7.76256 13.1768 8.23744 13.1768 8.53033 13.4697L12 16.9393L15.4697 13.4697C15.7626 13.1768 16.2374 13.1768 16.5303 13.4697C16.8232 13.7626 16.8232 14.2374 16.5303 14.5303L12.5303 18.5303C12.2374 18.8232 11.7626 18.8232 11.4697 18.5303L7.46967 14.5303C7.17678 14.2374 7.17678 13.7626 7.46967 13.4697Z" fill="white"/>
<path fill-rule="evenodd" clip-rule="evenodd" d="M12 18.75C11.5858 18.75 11.25 18.4142 11.25 18L11.25 6C11.25 5.58579 11.5858 5.25 12 5.25C12.4142 5.25 12.75 5.58579 12.75 6L12.75 18C12.75 18.4142 12.4142 18.75 12 18.75Z" fill="white"/>
</svg>
