<svg width="24" height="24" viewBox="0 0 24 24" fill="none" xmlns="http://www.w3.org/2000/svg">
<path fill-rule="evenodd" clip-rule="evenodd" d="M2.25 12C2.25 6.61522 6.61522 2.25 12 2.25C17.3848 2.25 21.75 6.61522 21.75 12C21.75 17.3848 17.3848 21.75 12 21.75C6.61522 21.75 2.25 17.3848 2.25 12ZM12 3.75C7.44365 3.75 3.75 7.44365 3.75 12C3.75 16.5563 7.44365 20.25 12 20.25C16.5563 20.25 20.25 16.5563 20.25 12C20.25 7.44365 16.5563 3.75 12 3.75Z" fill="white"/>
<path fill-rule="evenodd" clip-rule="evenodd" d="M15.5 11.25C15.9142 11.25 16.25 11.5858 16.25 12C16.25 12.4142 15.9142 12.75 15.5 12.75L10.3107 12.75L12.0303 14.4697C12.3232 14.7626 12.3232 15.2374 12.0303 15.5303C11.7374 15.8232 11.2626 15.8232 10.9697 15.5303L7.96967 12.5303C7.67678 12.2374 7.67678 11.7626 7.96967 11.4697L10.9697 8.46967C11.2626 8.17678 11.7374 8.17678 12.0303 8.46967C12.3232 8.76256 12.3232 9.23744 12.0303 9.53033L10.3107 11.25L15.5 11.25Z" fill="white"/>
</svg>
