<svg width="24" height="24" viewBox="0 0 24 24" fill="none" xmlns="http://www.w3.org/2000/svg">
<path fill-rule="evenodd" clip-rule="evenodd" d="M21.75 12C21.75 17.3848 17.3848 21.75 12 21.75C6.61522 21.75 2.25 17.3848 2.25 12C2.25 6.61522 6.61523 2.25 12 2.25C17.3848 2.25 21.75 6.61522 21.75 12ZM12 20.25C16.5563 20.25 20.25 16.5563 20.25 12C20.25 7.44365 16.5564 3.75 12 3.75C7.44365 3.75 3.75 7.44365 3.75 12C3.75 16.5563 7.44365 20.25 12 20.25Z" fill="white"/>
<path fill-rule="evenodd" clip-rule="evenodd" d="M11.25 15.25C11.25 15.6642 11.5858 16 12 16C12.4142 16 12.75 15.6642 12.75 15.25L12.75 10.0607L14.4697 11.7803C14.7626 12.0732 15.2374 12.0732 15.5303 11.7803C15.8232 11.4874 15.8232 11.0126 15.5303 10.7197L12.5303 7.71967C12.2374 7.42678 11.7626 7.42678 11.4697 7.71967L8.46967 10.7197C8.17678 11.0126 8.17678 11.4874 8.46967 11.7803C8.76256 12.0732 9.23744 12.0732 9.53033 11.7803L11.25 10.0607L11.25 15.25Z" fill="white"/>
</svg>
