<svg width="24" height="24" viewBox="0 0 24 24" fill="none" xmlns="http://www.w3.org/2000/svg">
<path fill-rule="evenodd" clip-rule="evenodd" d="M12 21.75C6.61522 21.75 2.25 17.3848 2.25 12C2.25 6.61522 6.61522 2.25 12 2.25C17.3848 2.25 21.75 6.61522 21.75 12C21.75 17.3848 17.3848 21.75 12 21.75ZM3.75 12C3.75 16.5563 7.44365 20.25 12 20.25C16.5563 20.25 20.25 16.5563 20.25 12C20.25 7.44365 16.5563 3.75 12 3.75C7.44365 3.75 3.75 7.44365 3.75 12Z" fill="white"/>
<path fill-rule="evenodd" clip-rule="evenodd" d="M12.75 8.25C12.75 7.83579 12.4142 7.5 12 7.5C11.5858 7.5 11.25 7.83579 11.25 8.25V13.4393L9.53033 11.7197C9.23744 11.4268 8.76256 11.4268 8.46967 11.7197C8.17678 12.0126 8.17678 12.4874 8.46967 12.7803L11.4697 15.7803C11.7626 16.0732 12.2374 16.0732 12.5303 15.7803L15.5303 12.7803C15.8232 12.4874 15.8232 12.0126 15.5303 11.7197C15.2374 11.4268 14.7626 11.4268 14.4697 11.7197L12.75 13.4393V8.25Z" fill="white"/>
</svg>
