<svg width="24" height="24" viewBox="0 0 24 24" fill="none" xmlns="http://www.w3.org/2000/svg">
<path fill-rule="evenodd" clip-rule="evenodd" d="M17.0109 1.5L19.523 1.5C20.5842 1.5 21.3098 2.57179 20.9157 3.55709L15.75 16.4713V17L15.75 20C15.75 22.0711 14.0711 23.75 12 23.75C9.92896 23.75 8.25003 22.0711 8.25003 20V17V16.4713L3.08435 3.55709C2.69023 2.57179 3.41587 1.5 4.47706 1.5L6.98917 1.5C6.99663 1.49984 7.00407 1.49984 7.01148 1.5L12 1.5L16.9886 1.5C16.996 1.49984 17.0034 1.49984 17.0109 1.5ZM11.5 2.5V7C11.5 7.27615 11.7239 7.5 12 7.5C12.2762 7.5 12.5 7.27615 12.5 7V2.5L16.3454 2.5L15.0177 7.36844C14.945 7.63486 15.1021 7.90973 15.3685 7.98239C15.6349 8.05504 15.9098 7.89797 15.9824 7.63156L17.3819 2.5L19.523 2.5C19.8767 2.5 20.1186 2.85727 19.9872 3.1857L14.7615 16.25H9.23855L4.01283 3.1857C3.88145 2.85727 4.12333 2.5 4.47706 2.5L6.61813 2.5L8.01765 7.63156C8.09031 7.89797 8.36518 8.05504 8.63159 7.98239C8.898 7.90973 9.05507 7.63486 8.98241 7.36844L7.65466 2.5L11.5 2.5ZM9.75003 17.75V20C9.75003 21.2426 10.7574 22.25 12 22.25C13.2427 22.25 14.25 21.2426 14.25 20L14.25 17.75L9.75003 17.75Z" fill="white"/>
</svg>
