<svg width="24" height="24" viewBox="0 0 24 24" fill="none" xmlns="http://www.w3.org/2000/svg">
<path fill-rule="evenodd" clip-rule="evenodd" d="M5 2V9C5 12.6126 7.73668 15.5861 11.25 15.9603V21.25H9C8.58579 21.25 8.25 21.5858 8.25 22C8.25 22.4142 8.58579 22.75 9 22.75H15C15.4142 22.75 15.75 22.4142 15.75 22C15.75 21.5858 15.4142 21.25 15 21.25H12.75V15.9603C16.2633 15.5861 19 12.6126 19 9V2H5ZM17.5 3.5H6.5V9C6.5 12.0376 8.96243 14.5 12 14.5C15.0376 14.5 17.5 12.0376 17.5 9V3.5Z" fill="white"/>
</svg>
