<svg width="24" height="24" viewBox="0 0 24 24" fill="none" xmlns="http://www.w3.org/2000/svg">
<path fill-rule="evenodd" clip-rule="evenodd" d="M9.25 21C9.25 20.5858 9.58579 20.25 10 20.25L14 20.25C14.4142 20.25 14.75 20.5858 14.75 21C14.75 21.4142 14.4142 21.75 14 21.75L10 21.75C9.58579 21.75 9.25 21.4142 9.25 21Z" fill="white"/>
<path fill-rule="evenodd" clip-rule="evenodd" d="M3.25 11C3.25 6.16751 7.16751 2.25 12 2.25C16.8325 2.25 20.75 6.16751 20.75 11V15.5C20.75 17.2949 19.2949 18.75 17.5 18.75H6.5C4.70507 18.75 3.25 17.2949 3.25 15.5V11ZM12 3.75C7.99594 3.75 4.75 6.99594 4.75 11V15.5C4.75 16.4665 5.5335 17.25 6.5 17.25H17.5C18.4665 17.25 19.25 16.4665 19.25 15.5V11C19.25 6.99594 16.0041 3.75 12 3.75Z" fill="white"/>
</svg>
