<svg width="24" height="24" viewBox="0 0 24 24" fill="none" xmlns="http://www.w3.org/2000/svg">
<path fill-rule="evenodd" clip-rule="evenodd" d="M18.5893 4.99753C20.0529 7.63201 19.5927 10.9175 17.4617 13.0486L12.5484 17.9618C10.4174 20.0929 7.13184 20.553 4.49736 19.0894L4.40746 19.0395C2.81034 18.1522 2.50652 15.9829 3.79843 14.691L5.06202 13.4274C5.95431 12.5351 7.33937 12.3646 8.42143 13.0139L8.60941 13.1266C9.49473 13.6578 10.628 13.5183 11.358 12.7883L12.2881 11.8582C13.0182 11.1281 13.1577 9.9949 12.6265 9.10958L12.5137 8.9216C11.8645 7.83954 12.035 6.45448 12.9272 5.56219L14.1908 4.2986C15.4828 3.00669 17.652 3.31051 18.5393 4.90763L18.5893 4.99753ZM16.401 11.9879C18.0585 10.3305 18.4164 7.77503 17.278 5.72599L17.2281 5.63609C16.8248 4.91013 15.8387 4.77203 15.2515 5.35926L13.9879 6.62285C13.5823 7.02844 13.5048 7.65801 13.7999 8.14985L13.9127 8.33784C14.798 9.81337 14.5655 11.7021 13.3488 12.9188L12.4187 13.8489C11.2019 15.0657 9.3132 15.2982 7.83767 14.4129L7.64969 14.3001C7.15784 14.005 6.52827 14.0825 6.12268 14.4881L4.8591 15.7517C4.27186 16.3389 4.40996 17.3249 5.13592 17.7282L5.22582 17.7782C7.27487 18.9165 9.83029 18.5586 11.4878 16.9012L16.401 11.9879Z" fill="white"/>
</svg>
