<svg width="24" height="24" viewBox="0 0 24 24" fill="none" xmlns="http://www.w3.org/2000/svg">
<path fill-rule="evenodd" clip-rule="evenodd" d="M5 4.75C4.30964 4.75 3.75 5.30964 3.75 6V14C3.75 14.6904 4.30964 15.25 5 15.25H6C6.41421 15.25 6.75 15.5858 6.75 16C6.75 16.4142 6.41421 16.75 6 16.75H5C3.48122 16.75 2.25 15.5188 2.25 14V6C2.25 4.48122 3.48122 3.25 5 3.25H19C20.5188 3.25 21.75 4.48122 21.75 6V14C21.75 15.5188 20.5188 16.75 19 16.75H18C17.5858 16.75 17.25 16.4142 17.25 16C17.25 15.5858 17.5858 15.25 18 15.25H19C19.6904 15.25 20.25 14.6904 20.25 14V6C20.25 5.30964 19.6904 4.75 19 4.75H5Z" fill="white"/>
<path fill-rule="evenodd" clip-rule="evenodd" d="M15.3989 19.25L12.0002 15.1715L8.60147 19.25L15.3989 19.25ZM16.8929 18.6998C17.5714 19.5139 16.9925 20.75 15.9327 20.75L8.06771 20.75C7.00791 20.75 6.42897 19.5139 7.10743 18.6998L11.0399 13.9808C11.5397 13.3811 12.4607 13.3811 12.9605 13.9808L16.8929 18.6998Z" fill="white"/>
</svg>
