<svg width="24" height="24" viewBox="0 0 24 24" fill="none" xmlns="http://www.w3.org/2000/svg">
<path fill-rule="evenodd" clip-rule="evenodd" d="M12 21.75C6.61522 21.75 2.25 17.3848 2.25 12C2.25 6.61522 6.61522 2.25 12 2.25C17.3848 2.25 21.75 6.61522 21.75 12C21.75 17.3848 17.3848 21.75 12 21.75ZM3.75 12C3.75 16.5563 7.44365 20.25 12 20.25C16.5563 20.25 20.25 16.5563 20.25 12C20.25 7.44365 16.5563 3.75 12 3.75C7.44365 3.75 3.75 7.44365 3.75 12Z" fill="white"/>
<path fill-rule="evenodd" clip-rule="evenodd" d="M14.6514 9.34835C14.9443 9.64125 14.9443 10.1161 14.6514 10.409L10.4088 14.6517C10.1159 14.9445 9.64102 14.9445 9.34812 14.6517C9.05523 14.3588 9.05523 13.8839 9.34812 13.591L13.5908 9.34835C13.8837 9.05546 14.3585 9.05546 14.6514 9.34835Z" fill="white"/>
<path fill-rule="evenodd" clip-rule="evenodd" d="M14.6518 14.6516C14.3589 14.9445 13.884 14.9445 13.5911 14.6516L9.3485 10.409C9.05561 10.1161 9.05561 9.64123 9.3485 9.34834C9.64139 9.05544 10.1163 9.05544 10.4092 9.34834L14.6518 13.591C14.9447 13.8839 14.9447 14.3587 14.6518 14.6516Z" fill="white"/>
</svg>
