<svg width="24" height="24" viewBox="0 0 24 24" fill="none" xmlns="http://www.w3.org/2000/svg">
<path fill-rule="evenodd" clip-rule="evenodd" d="M16.066 7.93414C16.3589 8.22703 16.3589 8.70191 16.066 8.9948L8.99491 16.0659C8.70201 16.3588 8.22714 16.3588 7.93425 16.0659C7.64135 15.773 7.64135 15.2981 7.93425 15.0052L15.0053 7.93414C15.2982 7.64125 15.7731 7.64125 16.066 7.93414Z" fill="white"/>
<path fill-rule="evenodd" clip-rule="evenodd" d="M16.0659 16.0659C15.773 16.3587 15.2981 16.3587 15.0052 16.0659L7.93413 8.99478C7.64124 8.70189 7.64124 8.22702 7.93413 7.93412C8.22703 7.64123 8.7019 7.64123 8.99479 7.93412L16.0659 15.0052C16.3588 15.2981 16.3588 15.773 16.0659 16.0659Z" fill="white"/>
</svg>
