<svg width="24" height="24" viewBox="0 0 24 24" fill="none" xmlns="http://www.w3.org/2000/svg">
<g clip-path="url(#clip0_1254_16448)">
<path fill-rule="evenodd" clip-rule="evenodd" d="M8.06713 4.22532L3.28601 5.50642C2.48581 5.72083 2.01093 6.54333 2.22535 7.34353L4.92345 17.413C5.13786 18.2132 5.96037 18.6881 6.76056 18.4737L11.5417 17.1926C12.3419 16.9781 12.8168 16.1556 12.6024 15.3554L9.90425 5.28598C9.68983 4.48578 8.86733 4.0109 8.06713 4.22532ZM2.89778 4.05753C1.29738 4.48635 0.347631 6.13136 0.776457 7.73176L3.47456 17.8012C3.90339 19.4016 5.54839 20.3514 7.14879 19.9225L11.9299 18.6414C13.5303 18.2126 14.4801 16.5676 14.0512 14.9672L11.3531 4.89775C10.9243 3.29735 9.2793 2.3476 7.67891 2.77643L2.89778 4.05753Z" fill="white"/>
<path fill-rule="evenodd" clip-rule="evenodd" d="M14.3467 6.48565C15.3822 4.69205 17.6757 4.07752 19.4693 5.11305L22.0674 6.61305C23.8609 7.64859 24.4755 9.94205 23.4399 11.7356L18.9399 19.5299C17.9044 21.3235 15.6109 21.938 13.8174 20.9025L13.6874 20.8275C13.3287 20.6204 13.2058 20.1617 13.4129 19.803C13.62 19.4442 14.0787 19.3213 14.4374 19.5284L14.5674 19.6034C15.6435 20.2248 17.0196 19.856 17.6409 18.7799L22.1409 10.9856C22.7622 9.90949 22.3935 8.53341 21.3174 7.91209L18.7193 6.41209C17.6431 5.79077 16.267 6.15949 15.6457 7.23565L15.2707 7.88517C15.0636 8.24389 14.6049 8.36679 14.2462 8.15969C13.8875 7.95258 13.7646 7.49389 13.9717 7.13517L14.3467 6.48565Z" fill="white"/>
<path fill-rule="evenodd" clip-rule="evenodd" d="M5.5 7.5C5.5 6.94772 5.94772 6.5 6.5 6.5C7.05228 6.5 7.5 6.94772 7.5 7.5C7.5 8.05228 7.05228 8.5 6.5 8.5C5.94772 8.5 5.5 8.05228 5.5 7.5Z" fill="white"/>
<path fill-rule="evenodd" clip-rule="evenodd" d="M17.5 9.5C17.5 8.94772 17.9477 8.5 18.5 8.5C19.0523 8.5 19.5 8.94772 19.5 9.5C19.5 10.0523 19.0523 10.5 18.5 10.5C17.9477 10.5 17.5 10.0523 17.5 9.5Z" fill="white"/>
</g>
<defs>
<clipPath id="clip0_1254_16448">
<rect width="24" height="24" fill="white"/>
</clipPath>
</defs>
</svg>
