<svg width="24" height="24" viewBox="0 0 24 24" fill="none" xmlns="http://www.w3.org/2000/svg">
<path fill-rule="evenodd" clip-rule="evenodd" d="M13.84 15.9086L13.8555 15.8931L13.871 15.8776L13.8791 15.8693L17.7715 11.977C18.8241 10.9244 18.8241 9.21788 17.7715 8.16533C16.719 7.11278 15.0125 7.11278 13.9599 8.16533L12 10.1253L9.98966 8.11495C8.90931 7.0346 7.15771 7.0346 6.07736 8.11495C4.997 9.19531 4.997 10.9469 6.07736 12.0273L9.94322 15.8931C10.0089 15.9588 10.0766 16.0202 10.1462 16.0774L10.2552 16.1669L10.3455 16.2753C10.4133 16.3565 10.4856 16.4357 10.5624 16.5126L11.8992 17.8493L13.84 15.9086ZM11.8992 19.9706L9.50175 17.5732C9.39298 17.4645 9.29028 17.3519 9.19363 17.2361C9.0865 17.148 8.98266 17.0539 8.88256 16.9538L5.0167 13.0879C3.35055 11.4218 3.35055 8.72043 5.0167 7.05429C6.68284 5.38815 9.38418 5.38815 11.0503 7.05429L12 8.00394L12.8992 7.10467C12.899 7.1049 12.8995 7.10444 12.8992 7.10467C14.5376 5.46702 17.1941 5.46656 18.8322 7.10467C20.4705 8.74301 20.4705 11.3993 18.8322 13.0376L14.9398 16.93L14.9162 16.9538L14.8924 16.9774L11.8992 19.9706Z" fill="white"/>
</svg>
