<svg width="24" height="24" viewBox="0 0 24 24" fill="none" xmlns="http://www.w3.org/2000/svg">
<path d="M8.74863 14.6286C8.76078 15.2254 8.85185 15.6762 9.02186 15.981C9.19186 16.2857 9.50759 16.5143 9.96903 16.6667C10.4426 16.819 11.1469 16.8952 12.082 16.8952C13.357 16.8952 14.207 16.7556 14.6321 16.4762C15.0571 16.1841 15.2696 15.6317 15.2696 14.819C15.2696 13.9683 15.0571 13.4286 14.6321 13.2C14.2192 12.9714 13.3084 12.8254 11.8998 12.7619C9.99332 12.6857 8.70613 12.4381 8.03825 12.019C7.37037 11.6 7.03643 10.7048 7.03643 9.33333V9.00952C7.03643 7.76508 7.35216 6.88254 7.98361 6.3619C8.61506 5.84127 9.70188 5.56191 11.2441 5.52381V4H12.7923V5.54286C14.2495 5.63175 15.2453 5.95556 15.7796 6.51429C16.3139 7.06032 16.6053 7.9873 16.6539 9.29524H14.9053C14.881 8.44444 14.6685 7.86667 14.2678 7.5619C13.8792 7.25714 13.0413 7.10476 11.7541 7.10476C10.5519 7.10476 9.75046 7.24444 9.34973 7.52381C8.96114 7.79048 8.76685 8.32381 8.76685 9.12381C8.76685 9.96191 8.98543 10.5079 9.42259 10.7619C9.75046 10.9397 10.5337 11.0667 11.7723 11.1429C12.1609 11.1556 12.4159 11.1683 12.5373 11.181C13.4845 11.2444 14.207 11.3206 14.7049 11.4095C15.2028 11.4984 15.646 11.6635 16.0346 11.9048C16.4232 12.146 16.6782 12.4825 16.7996 12.9143C16.9332 13.3333 17 13.9048 17 14.6286V14.9524C17 16.1714 16.6843 17.054 16.0528 17.6C15.4214 18.1333 14.3345 18.4254 12.7923 18.4762V20H11.2441V18.4571C9.64117 18.4063 8.5422 18.1016 7.94718 17.5429C7.3643 16.9714 7.04857 16 7 14.6286H8.74863Z" fill="white"/>
</svg>
