<svg width="24" height="24" viewBox="0 0 24 24" fill="none" xmlns="http://www.w3.org/2000/svg">
<path fill-rule="evenodd" clip-rule="evenodd" d="M19 6.25C19.4142 6.25 19.75 6.58579 19.75 7L19.75 9C19.75 12.1756 17.1756 14.75 14 14.75L4 14.75C3.58579 14.75 3.25 14.4142 3.25 14C3.25 13.5858 3.58579 13.25 4 13.25L14 13.25C16.3472 13.25 18.25 11.3472 18.25 9L18.25 7C18.25 6.58579 18.5858 6.25 19 6.25Z" fill="white"/>
<path fill-rule="evenodd" clip-rule="evenodd" d="M8.53033 9.46967C8.82322 9.76256 8.82322 10.2374 8.53033 10.5303L5.06066 14L8.53033 17.4697C8.82322 17.7626 8.82322 18.2374 8.53033 18.5303C8.23744 18.8232 7.76256 18.8232 7.46967 18.5303L3.46967 14.5303C3.17678 14.2374 3.17678 13.7626 3.46967 13.4697L7.46967 9.46967C7.76256 9.17678 8.23744 9.17678 8.53033 9.46967Z" fill="white"/>
</svg>
