<svg width="24" height="24" viewBox="0 0 24 24" fill="none" xmlns="http://www.w3.org/2000/svg">
<path fill-rule="evenodd" clip-rule="evenodd" d="M6 2.75C4.20507 2.75 2.75 4.20507 2.75 6V7C2.75 7.41421 2.41421 7.75 2 7.75C1.58579 7.75 1.25 7.41421 1.25 7V6C1.25 3.37665 3.37665 1.25 6 1.25H7C7.41421 1.25 7.75 1.58579 7.75 2C7.75 2.41421 7.41421 2.75 7 2.75H6Z" fill="white"/>
<path fill-rule="evenodd" clip-rule="evenodd" d="M21.25 6C21.25 4.20507 19.7949 2.75 18 2.75L17 2.75C16.5858 2.75 16.25 2.41421 16.25 2C16.25 1.58579 16.5858 1.25 17 1.25L18 1.25C20.6234 1.25 22.75 3.37665 22.75 6L22.75 7C22.75 7.41421 22.4142 7.75 22 7.75C21.5858 7.75 21.25 7.41421 21.25 7L21.25 6Z" fill="white"/>
<path fill-rule="evenodd" clip-rule="evenodd" d="M18 21.25C19.7949 21.25 21.25 19.7949 21.25 18L21.25 17C21.25 16.5858 21.5858 16.25 22 16.25C22.4142 16.25 22.75 16.5858 22.75 17L22.75 18C22.75 20.6234 20.6234 22.75 18 22.75L17 22.75C16.5858 22.75 16.25 22.4142 16.25 22C16.25 21.5858 16.5858 21.25 17 21.25L18 21.25Z" fill="white"/>
<path fill-rule="evenodd" clip-rule="evenodd" d="M2.75 18C2.75 19.7949 4.20507 21.25 6 21.25L7 21.25C7.41421 21.25 7.75 21.5858 7.75 22C7.75 22.4142 7.41421 22.75 7 22.75L6 22.75C3.37665 22.75 1.25 20.6234 1.25 18L1.25 17C1.25 16.5858 1.58579 16.25 2 16.25C2.41421 16.25 2.75 16.5858 2.75 17L2.75 18Z" fill="white"/>
<path fill-rule="evenodd" clip-rule="evenodd" d="M7 7.25C7.41421 7.25 7.75 7.58579 7.75 8V10C7.75 10.4142 7.41421 10.75 7 10.75C6.58579 10.75 6.25 10.4142 6.25 10V8C6.25 7.58579 6.58579 7.25 7 7.25Z" fill="white"/>
<path fill-rule="evenodd" clip-rule="evenodd" d="M17 7.25C17.4142 7.25 17.75 7.58579 17.75 8V10C17.75 10.4142 17.4142 10.75 17 10.75C16.5858 10.75 16.25 10.4142 16.25 10V8C16.25 7.58579 16.5858 7.25 17 7.25Z" fill="white"/>
<path fill-rule="evenodd" clip-rule="evenodd" d="M12 7.25C12.4142 7.25 12.75 7.58579 12.75 8V12C12.75 12.9665 11.9665 13.75 11 13.75H10C9.58579 13.75 9.25 13.4142 9.25 13C9.25 12.5858 9.58579 12.25 10 12.25H11C11.1381 12.25 11.25 12.1381 11.25 12V8C11.25 7.58579 11.5858 7.25 12 7.25Z" fill="white"/>
<path fill-rule="evenodd" clip-rule="evenodd" d="M7.32934 15.6646C7.51459 15.2941 7.96509 15.1439 8.33557 15.3292L8.75787 15.5403C10.7989 16.5609 13.2014 16.5609 15.2425 15.5403L15.6648 15.3292C16.0352 15.1439 16.4857 15.2941 16.671 15.6646C16.8562 16.0351 16.7061 16.4856 16.3356 16.6708L15.9133 16.882C13.4499 18.1136 10.5504 18.1136 8.08705 16.882L7.66475 16.6708C7.29427 16.4856 7.1441 16.0351 7.32934 15.6646Z" fill="white"/>
</svg>
