<svg width="24" height="24" viewBox="0 0 24 24" fill="none" xmlns="http://www.w3.org/2000/svg">
<path d="M14.8924 16.9774C14.9004 16.9695 14.9083 16.9617 14.9162 16.9538C14.9241 16.9459 14.9319 16.938 14.9398 16.93L18.8322 13.0376C20.4705 11.3993 20.4705 8.74301 18.8322 7.10467C17.1938 5.46633 14.5376 5.46633 12.8992 7.10467L12 8.00394L11.0503 7.05429C9.38418 5.38815 6.68284 5.38815 5.0167 7.05429C3.35055 8.72043 3.35055 11.4218 5.0167 13.0879L8.88256 16.9538C8.98266 17.0539 9.0865 17.148 9.19363 17.2361C9.29028 17.3519 9.39298 17.4645 9.50175 17.5732L11.8992 19.9706L14.8924 16.9774Z" fill="white"/>
</svg>
