<svg width="24" height="24" viewBox="0 0 24 24" fill="none" xmlns="http://www.w3.org/2000/svg">
<path d="M4 9C4 6.79086 5.79086 5 8 5H16C18.2091 5 20 6.79086 20 9V15C20 17.2091 18.2091 19 16 19H8C5.79086 19 4 17.2091 4 15V9Z" fill="white"/>
<path fill-rule="evenodd" clip-rule="evenodd" d="M16.2883 22.2372C16.4193 22.6302 16.844 22.8425 17.237 22.7116C17.6299 22.5806 17.8423 22.1558 17.7113 21.7629L17.0049 19.6435C19.1456 19.1824 20.75 17.2786 20.75 15L20.75 9C20.75 6.37665 18.6234 4.25 16 4.25H12.7498V2.50004C12.7498 2.08582 12.414 1.75004 11.9998 1.75004C11.5856 1.75004 11.2498 2.08582 11.2498 2.50004L11.2498 4.25L8 4.25C5.37665 4.25 3.25 6.37665 3.25 9L3.25 15C3.25 17.2785 4.85422 19.1822 6.99477 19.6434L6.28828 21.7629C6.1573 22.1558 6.36967 22.5806 6.76263 22.7115C7.15558 22.8425 7.58032 22.6302 7.71131 22.2372L8.54037 19.75L15.4592 19.75L16.2883 22.2372ZM11.9921 5.75L8 5.75C6.20507 5.75 4.75 7.20507 4.75 9L4.75 15C4.75 16.7949 6.20507 18.25 8 18.25L16 18.25C17.7949 18.25 19.25 16.7949 19.25 15V9C19.25 7.20507 17.7949 5.75 16 5.75H12.0075C12.005 5.75002 12.0024 5.75004 11.9998 5.75004C11.9972 5.75004 11.9946 5.75002 11.9921 5.75Z" fill="white"/>
</svg>
