<svg width="24" height="24" viewBox="0 0 24 24" fill="none" xmlns="http://www.w3.org/2000/svg">
<path fill-rule="evenodd" clip-rule="evenodd" d="M5 5C5 4.44772 5.44772 4 6 4L15 4C17.2091 4 19 5.79086 19 8V19C19 19.5523 18.5523 20 18 20L6 20C5.44772 20 5 19.5523 5 19L5 5ZM9.25 11C9.25 10.5858 9.58579 10.25 10 10.25L14 10.25C14.4142 10.25 14.75 10.5858 14.75 11C14.75 11.4142 14.4142 11.75 14 11.75L10 11.75C9.58579 11.75 9.25 11.4142 9.25 11ZM10 14.25C9.58579 14.25 9.25 14.5858 9.25 15C9.25 15.4142 9.58579 15.75 10 15.75L12 15.75C12.4142 15.75 12.75 15.4142 12.75 15C12.75 14.5858 12.4142 14.25 12 14.25L10 14.25Z" fill="white"/>
</svg>
