<svg width="24" height="24" viewBox="0 0 24 24" fill="none" xmlns="http://www.w3.org/2000/svg">
<g clip-path="url(#clip0_1253_15753)">
<path fill-rule="evenodd" clip-rule="evenodd" d="M18.8531 5.31165C16.8729 2.96841 13.5328 2.311 10.8122 3.72898L10.7105 3.78202C9.05443 4.64516 7.83361 6.1601 7.3422 7.96177L7.00408 9.20143C6.55775 10.8378 5.7437 12.3507 4.624 13.6248L3.83105 14.5271C3.55762 14.8382 3.08373 14.8688 2.77259 14.5954C2.46145 14.3219 2.43089 13.848 2.70433 13.5369L3.49727 12.6346C4.46624 11.5321 5.1707 10.2228 5.55694 8.80672L5.89506 7.56706C6.49645 5.36217 7.9905 3.50817 10.0172 2.45185L10.1189 2.39881C13.4617 0.656536 17.5657 1.4643 19.9988 4.34344C21.5926 6.22933 22.2338 8.74178 21.7388 11.1608L21.519 12.2349C21.3828 12.9006 21.1811 13.5513 20.917 14.1773L20.5614 15.0202C19.5375 17.447 18.034 19.642 16.1411 21.4735L15.2001 22.3839C14.9024 22.6719 14.4276 22.664 14.1396 22.3664C13.8516 22.0687 13.8594 21.5939 14.1571 21.3058L15.0981 20.3954C16.8458 18.7044 18.234 16.6778 19.1793 14.4372L19.535 13.5942C19.7607 13.0592 19.933 12.5032 20.0495 11.9342L20.2693 10.8601C20.6722 8.89131 20.1503 6.84652 18.8531 5.31165Z" fill="white"/>
<path fill-rule="evenodd" clip-rule="evenodd" d="M16.3618 7.75118C15.2975 6.23019 13.1454 5.97639 11.7564 7.20806L11.6584 7.29502C11.209 7.6935 10.8799 8.20963 10.7083 8.78518L10.0414 11.0211C9.22196 13.7685 7.51102 16.1648 5.17856 17.832L5.09255 17.8935C4.75557 18.1344 4.28713 18.0564 4.04626 17.7195C3.8054 17.3825 3.88332 16.914 4.2203 16.6732L4.30632 16.6117C6.36769 15.1383 7.87977 13.0204 8.60396 10.5923L9.27083 8.35646C9.52239 7.51302 10.0046 6.75667 10.6632 6.17272L10.7612 6.08575C12.821 4.25925 16.0125 4.63563 17.5908 6.89118C18.2622 7.85059 18.5429 9.02971 18.3759 10.1887L18.1768 11.5711C18.0844 12.2123 17.9158 12.8401 17.6745 13.4413L17.377 14.1825C16.5213 16.3143 15.1809 18.2177 13.4622 19.7418L10.9242 21.9924C10.6143 22.2672 10.1403 22.2388 9.86544 21.9288C9.59063 21.6189 9.61908 21.1449 9.92899 20.8701L12.467 18.6195C14.0115 17.2499 15.216 15.5395 15.9849 13.6237L16.2824 12.8826C16.4792 12.3922 16.6168 11.8802 16.6921 11.3572L16.8913 9.97482C17.0039 9.19326 16.8146 8.39814 16.3618 7.75118Z" fill="white"/>
<path fill-rule="evenodd" clip-rule="evenodd" d="M13.6794 9.77185C14.0815 9.87101 14.3272 10.2774 14.228 10.6796L13.9486 11.8128C13.5197 13.5521 12.7334 15.183 11.6397 16.6017C10.9032 17.5569 10.0364 18.4042 9.06466 19.1187L7.32596 20.3971C6.99225 20.6425 6.52281 20.5709 6.27743 20.2372C6.03206 19.9035 6.10368 19.434 6.43739 19.1886L8.17609 17.9102C9.03488 17.2788 9.80088 16.53 10.4517 15.6858C11.4183 14.4321 12.1132 12.9908 12.4922 11.4537L12.7716 10.3205C12.8708 9.91832 13.2772 9.67268 13.6794 9.77185Z" fill="white"/>
</g>
<defs>
<clipPath id="clip0_1253_15753">
<rect width="24" height="24" fill="white"/>
</clipPath>
</defs>
</svg>
