<svg width="24" height="24" viewBox="0 0 24 24" fill="none" xmlns="http://www.w3.org/2000/svg">
<path fill-rule="evenodd" clip-rule="evenodd" d="M4.25 6C4.25 5.58579 4.58579 5.25 5 5.25H20C20.2599 5.25 20.5013 5.38459 20.638 5.6057C20.7746 5.82681 20.7871 6.10292 20.6708 6.33541L18.3385 11L20.6708 15.6646C20.7871 15.8971 20.7746 16.1732 20.638 16.3943C20.5013 16.6154 20.2599 16.75 20 16.75H5C4.58579 16.75 4.25 16.4142 4.25 16V6ZM5.75 6.75V15.25H18.7865L16.8292 11.3354C16.7236 11.1243 16.7236 10.8757 16.8292 10.6646L18.7865 6.75H5.75Z" fill="white"/>
<path fill-rule="evenodd" clip-rule="evenodd" d="M5 4.25C5.41421 4.25 5.75 4.58579 5.75 5L5.75 21C5.75 21.4142 5.41421 21.75 5 21.75C4.58579 21.75 4.25 21.4142 4.25 21L4.25 5C4.25 4.58579 4.58579 4.25 5 4.25Z" fill="white"/>
</svg>
