<svg width="24" height="24" viewBox="0 0 24 24" fill="none" xmlns="http://www.w3.org/2000/svg">
<path d="M13.414 10.5858C14.1951 11.3668 14.1951 12.6332 13.414 13.4142C12.633 14.1953 11.3666 14.1953 10.5856 13.4142C9.80455 12.6332 9.80455 11.3668 10.5856 10.5858C11.3666 9.80474 12.633 9.80474 13.414 10.5858Z" fill="white"/>
<path fill-rule="evenodd" clip-rule="evenodd" d="M6 4.75C5.30964 4.75 4.75 5.30964 4.75 6V8C4.75 8.41421 4.41421 8.75 4 8.75C3.58579 8.75 3.25 8.41421 3.25 8V6C3.25 4.48122 4.48122 3.25 6 3.25H8C8.41421 3.25 8.75 3.58579 8.75 4C8.75 4.41421 8.41421 4.75 8 4.75H6Z" fill="white"/>
<path fill-rule="evenodd" clip-rule="evenodd" d="M19.25 6C19.25 5.30964 18.6904 4.75 18 4.75L16 4.75C15.5858 4.75 15.25 4.41421 15.25 4C15.25 3.58579 15.5858 3.25 16 3.25L18 3.25C19.5188 3.25 20.75 4.48122 20.75 6L20.75 8C20.75 8.41421 20.4142 8.75 20 8.75C19.5858 8.75 19.25 8.41421 19.25 8L19.25 6Z" fill="white"/>
<path fill-rule="evenodd" clip-rule="evenodd" d="M18 19.25C18.6904 19.25 19.25 18.6904 19.25 18L19.25 16C19.25 15.5858 19.5858 15.25 20 15.25C20.4142 15.25 20.75 15.5858 20.75 16L20.75 18C20.75 19.5188 19.5188 20.75 18 20.75L16 20.75C15.5858 20.75 15.25 20.4142 15.25 20C15.25 19.5858 15.5858 19.25 16 19.25L18 19.25Z" fill="white"/>
<path fill-rule="evenodd" clip-rule="evenodd" d="M4.75 18C4.75 18.6904 5.30964 19.25 6 19.25L8 19.25C8.41421 19.25 8.75 19.5858 8.75 20C8.75 20.4142 8.41421 20.75 8 20.75L6 20.75C4.48122 20.75 3.25 19.5188 3.25 18L3.25 16C3.25 15.5858 3.58579 15.25 4 15.25C4.41421 15.25 4.75 15.5858 4.75 16L4.75 18Z" fill="white"/>
</svg>
