<svg width="24" height="24" viewBox="0 0 24 24" fill="none" xmlns="http://www.w3.org/2000/svg">
<path fill-rule="evenodd" clip-rule="evenodd" d="M7 4.75C5.75736 4.75 4.75 5.75736 4.75 7V9C4.75 9.41421 4.41421 9.75 4 9.75C3.58579 9.75 3.25 9.41421 3.25 9V7C3.25 4.92893 4.92893 3.25 7 3.25H9C9.41421 3.25 9.75 3.58579 9.75 4C9.75 4.41421 9.41421 4.75 9 4.75H7Z" fill="white"/>
<path fill-rule="evenodd" clip-rule="evenodd" d="M19.25 7C19.25 5.75736 18.2426 4.75 17 4.75L15 4.75C14.5858 4.75 14.25 4.41421 14.25 4C14.25 3.58579 14.5858 3.25 15 3.25L17 3.25C19.0711 3.25 20.75 4.92893 20.75 7L20.75 9C20.75 9.41421 20.4142 9.75 20 9.75C19.5858 9.75 19.25 9.41421 19.25 9L19.25 7Z" fill="white"/>
<path fill-rule="evenodd" clip-rule="evenodd" d="M17 19.25C18.2426 19.25 19.25 18.2426 19.25 17L19.25 15C19.25 14.5858 19.5858 14.25 20 14.25C20.4142 14.25 20.75 14.5858 20.75 15L20.75 17C20.75 19.0711 19.0711 20.75 17 20.75L15 20.75C14.5858 20.75 14.25 20.4142 14.25 20C14.25 19.5858 14.5858 19.25 15 19.25L17 19.25Z" fill="white"/>
<path fill-rule="evenodd" clip-rule="evenodd" d="M4.75 17C4.75 18.2426 5.75736 19.25 7 19.25L9 19.25C9.41421 19.25 9.75 19.5858 9.75 20C9.75 20.4142 9.41421 20.75 9 20.75L7 20.75C4.92893 20.75 3.25 19.0711 3.25 17L3.25 15C3.25 14.5858 3.58579 14.25 4 14.25C4.41421 14.25 4.75 14.5858 4.75 15L4.75 17Z" fill="white"/>
</svg>
