<svg width="24" height="24" viewBox="0 0 24 24" fill="none" xmlns="http://www.w3.org/2000/svg">
<path d="M21.5538 12.2361C21.5538 11.5771 21.4954 10.9514 21.3953 10.3424H11.9684V14.1048H17.3659C17.124 15.3395 16.4149 16.3823 15.3637 17.0914V19.5941H18.5839C20.4693 17.8505 21.5538 15.2811 21.5538 12.2361Z" fill="white"/>
<path d="M11.9684 22.0217C14.6713 22.0217 16.9321 21.1208 18.5839 19.5941L15.3637 17.0914C14.4628 17.692 13.3199 18.0591 11.9684 18.0591C9.35722 18.0591 7.14649 16.2989 6.35396 13.9213H3.03369V16.4991C4.67714 19.7693 8.05581 22.0217 11.9684 22.0217Z" fill="white"/>
<path d="M6.35396 13.9213C6.1454 13.3206 6.03695 12.6783 6.03695 12.0109C6.03695 11.3435 6.15374 10.7011 6.35396 10.1005V7.52267H3.03369C2.34961 8.87413 1.95752 10.3924 1.95752 12.0109C1.95752 13.6293 2.34961 15.1476 3.03369 16.4991L6.35396 13.9213Z" fill="white"/>
<path d="M11.9684 5.96264C13.445 5.96264 14.7631 6.47152 15.8059 7.46427L18.659 4.61117C16.9321 2.99274 14.6713 2 11.9684 2C8.05581 2 4.67714 4.25245 3.03369 7.52267L6.35396 10.1005C7.14649 7.72288 9.35722 5.96264 11.9684 5.96264Z" fill="white"/>
</svg>
