<svg width="24" height="24" viewBox="0 0 24 24" fill="none" xmlns="http://www.w3.org/2000/svg">
<path fill-rule="evenodd" clip-rule="evenodd" d="M9 4.75C7.48122 4.75 6.25 5.98122 6.25 7.5C6.25 9.01878 7.48122 10.25 9 10.25C10.5188 10.25 11.75 9.01878 11.75 7.5C11.75 5.98122 10.5188 4.75 9 4.75ZM4.75 7.5C4.75 5.15279 6.65279 3.25 9 3.25C11.3472 3.25 13.25 5.15279 13.25 7.5C13.25 9.84721 11.3472 11.75 9 11.75C6.65279 11.75 4.75 9.84721 4.75 7.5Z" fill="white"/>
<path fill-rule="evenodd" clip-rule="evenodd" d="M14.75 4C14.75 3.58579 15.0858 3.25 15.5 3.25C17.5711 3.25 19.25 4.92893 19.25 7C19.25 9.07107 17.5711 10.75 15.5 10.75C15.0858 10.75 14.75 10.4142 14.75 10C14.75 9.58579 15.0858 9.25 15.5 9.25C16.7426 9.25 17.75 8.24264 17.75 7C17.75 5.75736 16.7426 4.75 15.5 4.75C15.0858 4.75 14.75 4.41421 14.75 4Z" fill="white"/>
<path fill-rule="evenodd" clip-rule="evenodd" d="M0.75 19.3846C0.75 15.9966 3.49656 13.25 6.88462 13.25H11.1154C14.5034 13.25 17.25 15.9966 17.25 19.3846C17.25 20.691 16.191 21.75 14.8846 21.75H3.11539C1.80902 21.75 0.75 20.691 0.75 19.3846ZM6.88462 14.75C4.32499 14.75 2.25 16.825 2.25 19.3846C2.25 19.8626 2.63745 20.25 3.11539 20.25H14.8846C15.3626 20.25 15.75 19.8626 15.75 19.3846C15.75 16.825 13.675 14.75 11.1154 14.75H6.88462Z" fill="white"/>
<path fill-rule="evenodd" clip-rule="evenodd" d="M15.75 13C15.75 12.5858 16.0858 12.25 16.5 12.25H17.8846C20.8478 12.25 23.25 14.6522 23.25 17.6154C23.25 18.7943 22.2943 19.75 21.1154 19.75H19.7727C19.3585 19.75 19.0227 19.4142 19.0227 19C19.0227 18.5858 19.3585 18.25 19.7727 18.25H21.1154C21.4659 18.25 21.75 17.9659 21.75 17.6154C21.75 15.4806 20.0194 13.75 17.8846 13.75H16.5C16.0858 13.75 15.75 13.4142 15.75 13Z" fill="white"/>
</svg>
