<svg width="24" height="24" viewBox="0 0 24 24" fill="none" xmlns="http://www.w3.org/2000/svg">
<g id="heart">
<path id="Union (Stroke)" fill-rule="evenodd" clip-rule="evenodd" d="M13.8404 15.9086L13.856 15.8931L13.8715 15.8776L13.8796 15.8693L17.772 11.977C18.8246 10.9244 18.8246 9.21788 17.772 8.16533C16.7195 7.11278 15.0129 7.11278 13.9604 8.16533L12.0005 10.1253L9.99015 8.11495C8.9098 7.0346 7.1582 7.0346 6.07784 8.11495C4.99749 9.19531 4.99749 10.9469 6.07784 12.0273L9.94371 15.8931C10.0094 15.9588 10.0771 16.0201 10.1467 16.0774L10.2557 16.1669L10.346 16.2753C10.4138 16.3565 10.4861 16.4357 10.5629 16.5126L11.8996 17.8493L13.8404 15.9086ZM11.8996 19.9706L9.50224 17.5732C9.39347 17.4645 9.29077 17.3519 9.19412 17.2361C9.08699 17.148 8.98315 17.0539 8.88305 16.9538L5.01718 13.0879C3.35104 11.4218 3.35104 8.72043 5.01718 7.05429C6.68332 5.38815 9.38467 5.38815 11.0508 7.05429L12.0005 8.00394L12.8997 7.10467C12.9 7.10444 12.8995 7.1049 12.8997 7.10467C14.5381 5.46702 17.1946 5.46656 18.8327 7.10467C20.471 8.743 20.471 11.3993 18.8327 13.0376L14.9402 16.93L14.9167 16.9538L14.8929 16.9774L11.8996 19.9706Z" fill="white" fill-opacity="0.4"/>
</g>
</svg>
