<svg width="24" height="24" viewBox="0 0 24 24" fill="none" xmlns="http://www.w3.org/2000/svg">
<path d="M15.0051 22.0003H8.99432V15.5696C8.99432 14.9751 9.48081 14.4888 10.0754 14.4888H13.9241C14.5186 14.4888 15.0051 14.9751 15.0051 15.5696V22.0003V22.0003Z" stroke="#90939B" stroke-width="1.5" stroke-linecap="round" stroke-linejoin="round"/>
<path d="M22 11.3434V18.5955C22 20.4761 20.5514 22 18.7568 22H5.24324C3.44865 22 2 20.4761 2 18.5955V11.3434C2 10.3275 2.42162 9.37639 3.16757 8.72791L9.92432 2.79438C11.1243 1.73521 12.8757 1.73521 14.0757 2.79438L20.8324 8.72791C21.5784 9.37639 22 10.3275 22 11.3434Z" stroke="#90939B" stroke-width="1.5" stroke-linecap="round" stroke-linejoin="round"/>
</svg>
