<svg width="24" height="24" viewBox="0 0 24 24" fill="none" xmlns="http://www.w3.org/2000/svg">
<path d="M18 7C18 7.55228 17.5523 8 17 8C16.4477 8 16 7.55228 16 7C16 6.44772 16.4477 6 17 6C17.5523 6 18 6.44772 18 7Z" fill="white"/>
<path d="M18 12C18 12.5523 17.5523 13 17 13C16.4477 13 16 12.5523 16 12C16 11.4477 16.4477 11 17 11C17.5523 11 18 11.4477 18 12Z" fill="white"/>
<path d="M7 12C7 11.4477 7.44772 11 8 11C8.55228 11 9 11.4477 9 12C9 12.5523 8.55228 13 8 13C7.44772 13 7 12.5523 7 12Z" fill="white"/>
<path fill-rule="evenodd" clip-rule="evenodd" d="M14 2.25C13.0335 2.25 12.25 3.0335 12.25 4V8.26772C12.1683 8.25604 12.0849 8.25 12 8.25H4C3.0335 8.25 2.25 9.0335 2.25 10V20C2.25 20.9665 3.0335 21.75 4 21.75H12C12.3718 21.75 12.7165 21.634 13 21.4363C13.2835 21.634 13.6282 21.75 14 21.75H20C20.9665 21.75 21.75 20.9665 21.75 20V4C21.75 3.0335 20.9665 2.25 20 2.25H14ZM13.75 20C13.75 20.1381 13.8619 20.25 14 20.25H16.0315C16.0109 20.1701 16 20.0863 16 20V16C16 15.4477 16.4477 15 17 15C17.5523 15 18 15.4477 18 16V20C18 20.0863 17.9891 20.1701 17.9685 20.25H20C20.1381 20.25 20.25 20.1381 20.25 20V4C20.25 3.86193 20.1381 3.75 20 3.75H14C13.8619 3.75 13.75 3.86193 13.75 4V20ZM12.25 10C12.25 9.86193 12.1381 9.75 12 9.75H4C3.86193 9.75 3.75 9.86193 3.75 10V20C3.75 20.1381 3.86193 20.25 4 20.25H7.0315C7.01094 20.1701 7 20.0863 7 20V16C7 15.4477 7.44772 15 8 15C8.55228 15 9 15.4477 9 16V20C9 20.0863 8.98906 20.1701 8.9685 20.25H12C12.1381 20.25 12.25 20.1381 12.25 20V10Z" fill="white"/>
</svg>
