<svg width="24" height="24" viewBox="0 0 24 24" fill="none" xmlns="http://www.w3.org/2000/svg">
<path fill-rule="evenodd" clip-rule="evenodd" d="M4.5 12C4.5 16.1421 7.85786 19.5 12 19.5C16.1421 19.5 19.5 16.1421 19.5 12C19.5 7.85786 16.1421 4.5 12 4.5C7.85786 4.5 4.5 7.85786 4.5 12ZM12 3C7.02944 3 3 7.02944 3 12C3 16.9706 7.02944 21 12 21C16.9706 21 21 16.9706 21 12C21 7.02944 16.9706 3 12 3Z" fill="white"/>
<path fill-rule="evenodd" clip-rule="evenodd" d="M9.17683 11.2374C9.0792 11.1398 8.92091 11.1398 8.82328 11.2374L4.53039 15.5303L3.46973 14.4696L7.76262 10.1767C8.44604 9.49333 9.55408 9.49333 10.2375 10.1767L13.8233 13.7625C13.9209 13.8602 14.0792 13.8602 14.1768 13.7625L15.7626 12.1767C16.446 11.4933 17.5541 11.4933 18.2375 12.1767L20.5304 14.4696L19.4697 15.5303L17.1768 13.2374C17.0792 13.1398 16.9209 13.1398 16.8233 13.2374L15.2375 14.8232C14.5541 15.5066 13.446 15.5066 12.7626 14.8232L9.17683 11.2374Z" fill="white"/>
</svg>
