<svg width="24" height="24" viewBox="0 0 24 24" fill="none" xmlns="http://www.w3.org/2000/svg">
<path fill-rule="evenodd" clip-rule="evenodd" d="M17.4912 8.34206C16.2294 7.05159 14.153 7.05159 12.8912 8.34206L12.5361 8.70524C12.395 8.84955 12.2017 8.9309 11.9999 8.9309C11.798 8.9309 11.6047 8.84955 11.4636 8.70524L11.1085 8.34206C9.84671 7.05159 7.77034 7.05159 6.50854 8.34206C5.28622 9.59217 5.28621 11.5897 6.50854 12.8398L11.6576 18.1059C11.8454 18.2979 12.1544 18.2979 12.3421 18.1059L17.4912 12.8398C18.7135 11.5897 18.7135 9.59217 17.4912 8.34206ZM11.9999 7.1176C13.8625 5.40308 16.7727 5.46168 18.5637 7.29339C20.356 9.12644 20.356 12.0554 18.5637 13.8885L13.4146 19.1546C12.6385 19.9484 11.3613 19.9484 10.5851 19.1546L5.43603 13.8885C3.64372 12.0554 3.64372 9.12644 5.43603 7.29339C7.22704 5.46168 10.1373 5.40308 11.9999 7.1176Z" fill="white"/>
</svg>
