<svg width="24" height="24" viewBox="0 0 24 24" fill="none" xmlns="http://www.w3.org/2000/svg">
<path fill-rule="evenodd" clip-rule="evenodd" d="M6.25 4C6.25 3.58579 6.58579 3.25 7 3.25H21C21.4142 3.25 21.75 3.58579 21.75 4C21.75 4.41421 21.4142 4.75 21 4.75H7C6.58579 4.75 6.25 4.41421 6.25 4Z" fill="white"/>
<path fill-rule="evenodd" clip-rule="evenodd" d="M6.25 12C6.25 11.5858 6.58579 11.25 7 11.25H14C14.4142 11.25 14.75 11.5858 14.75 12C14.75 12.4142 14.4142 12.75 14 12.75H7C6.58579 12.75 6.25 12.4142 6.25 12Z" fill="white"/>
<path fill-rule="evenodd" clip-rule="evenodd" d="M6.25 20C6.25 19.5858 6.58579 19.25 7 19.25H21C21.4142 19.25 21.75 19.5858 21.75 20C21.75 20.4142 21.4142 20.75 21 20.75H7C6.58579 20.75 6.25 20.4142 6.25 20Z" fill="white"/>
<path fill-rule="evenodd" clip-rule="evenodd" d="M2.25 4C2.25 3.58579 2.58579 3.25 3 3.25H17C17.4142 3.25 17.75 3.58579 17.75 4C17.75 4.41421 17.4142 4.75 17 4.75H3C2.58579 4.75 2.25 4.41421 2.25 4Z" fill="white"/>
<path fill-rule="evenodd" clip-rule="evenodd" d="M2.25 12C2.25 11.5858 2.58579 11.25 3 11.25H10C10.4142 11.25 10.75 11.5858 10.75 12C10.75 12.4142 10.4142 12.75 10 12.75H3C2.58579 12.75 2.25 12.4142 2.25 12Z" fill="white"/>
<path fill-rule="evenodd" clip-rule="evenodd" d="M2.25 20C2.25 19.5858 2.58579 19.25 3 19.25H17C17.4142 19.25 17.75 19.5858 17.75 20C17.75 20.4142 17.4142 20.75 17 20.75H3C2.58579 20.75 2.25 20.4142 2.25 20Z" fill="white"/>
</svg>
