<svg width="24" height="24" viewBox="0 0 24 24" fill="none" xmlns="http://www.w3.org/2000/svg">
<path d="M7 7.5C7 8.32843 6.32843 9 5.5 9C4.67157 9 4 8.32843 4 7.5C4 6.67157 4.67157 6 5.5 6C6.32843 6 7 6.67157 7 7.5Z" fill="white"/>
<path fill-rule="evenodd" clip-rule="evenodd" d="M10.75 7.5C10.75 7.08579 11.0858 6.75 11.5 6.75H20.5C20.9142 6.75 21.25 7.08579 21.25 7.5C21.25 7.91421 20.9142 8.25 20.5 8.25H11.5C11.0858 8.25 10.75 7.91421 10.75 7.5Z" fill="white"/>
<path d="M7 16.5C7 17.3284 6.32843 18 5.5 18C4.67157 18 4 17.3284 4 16.5C4 15.6716 4.67157 15 5.5 15C6.32843 15 7 15.6716 7 16.5Z" fill="white"/>
<path fill-rule="evenodd" clip-rule="evenodd" d="M10.75 16.5C10.75 16.0858 11.0858 15.75 11.5 15.75H20.5C20.9142 15.75 21.25 16.0858 21.25 16.5C21.25 16.9142 20.9142 17.25 20.5 17.25H11.5C11.0858 17.25 10.75 16.9142 10.75 16.5Z" fill="white"/>
</svg>
