<svg width="24" height="24" viewBox="0 0 24 24" fill="none" xmlns="http://www.w3.org/2000/svg">
<path fill-rule="evenodd" clip-rule="evenodd" d="M16.5962 16.2825C19.1346 13.7441 19.1346 9.62851 16.5962 7.0901C14.0578 4.55169 9.94221 4.55169 7.40381 7.0901C4.8654 9.6285 4.8654 13.7441 7.40381 16.2825L12 20.8787L16.5962 16.2825ZM17.6569 6.02944C20.781 9.15363 20.781 14.219 17.6569 17.3431L12.7071 22.2929C12.3166 22.6834 11.6834 22.6834 11.2929 22.2929L6.34315 17.3431C3.21895 14.219 3.21895 9.15363 6.34315 6.02944C9.46734 2.90524 14.5327 2.90524 17.6569 6.02944Z" fill="white"/>
<path fill-rule="evenodd" clip-rule="evenodd" d="M11.1104 9.71967C10.8175 9.42678 10.3426 9.42678 10.0497 9.71967C9.75685 10.0126 9.75685 10.4874 10.0497 10.7803L10.9337 11.6643L10.0498 12.5481C9.75693 12.841 9.75693 13.3159 10.0498 13.6088C10.3427 13.9017 10.8176 13.9017 11.1105 13.6088L11.9943 12.7249L12.8782 13.6088C13.1711 13.9017 13.6459 13.9016 13.9388 13.6088C14.2317 13.3159 14.2317 12.841 13.9388 12.5481L13.055 11.6643L13.9389 10.7803C14.2318 10.4874 14.2318 10.0126 13.9389 9.71968C13.646 9.42679 13.1711 9.42679 12.8782 9.71968L11.9943 10.6036L11.1104 9.71967Z" fill="white"/>
</svg>
