<svg width="24" height="24" viewBox="0 0 24 24" fill="none" xmlns="http://www.w3.org/2000/svg">
<path fill-rule="evenodd" clip-rule="evenodd" d="M16.5962 16.2825C19.1346 13.7441 19.1346 9.62851 16.5962 7.0901C14.0578 4.55169 9.94221 4.55169 7.40381 7.0901C4.8654 9.6285 4.8654 13.7441 7.40381 16.2825L12 20.8787L16.5962 16.2825ZM17.6569 6.02944C20.781 9.15363 20.781 14.219 17.6569 17.3431L12.7071 22.2929C12.3166 22.6834 11.6834 22.6834 11.2929 22.2929L6.34315 17.3431C3.21895 14.219 3.21895 9.15363 6.34315 6.02944C9.46734 2.90524 14.5327 2.90524 17.6569 6.02944Z" fill="white"/>
<path fill-rule="evenodd" clip-rule="evenodd" d="M9.75 11.75C9.75 11.3358 10.0858 11 10.5 11H13.5C13.9142 11 14.25 11.3358 14.25 11.75C14.25 12.1642 13.9142 12.5 13.5 12.5H10.5C10.0858 12.5 9.75 12.1642 9.75 11.75Z" fill="white"/>
</svg>
