<svg width="24" height="24" viewBox="0 0 24 24" fill="none" xmlns="http://www.w3.org/2000/svg">
<path fill-rule="evenodd" clip-rule="evenodd" d="M16.5962 15.9099C19.1346 13.3715 19.1346 9.25595 16.5962 6.71754C14.0578 4.17913 9.94221 4.17913 7.40381 6.71754C4.8654 9.25595 4.8654 13.3715 7.40381 15.9099L12 20.5061L16.5962 15.9099ZM17.6569 5.65688C20.781 8.78107 20.781 13.8464 17.6569 16.9706L12.7071 21.9203C12.3166 22.3109 11.6834 22.3109 11.2929 21.9203L6.34315 16.9706C3.21895 13.8464 3.21895 8.78107 6.34315 5.65688C9.46734 2.53268 14.5327 2.53268 17.6569 5.65688Z" fill="white"/>
<path d="M12 13C11.1716 13 10.5 12.3284 10.5 11.5C10.5 10.6716 11.1716 10 12 10C12.8284 10 13.5 10.6716 13.5 11.5C13.5 12.3284 12.8284 13 12 13Z" fill="white"/>
</svg>
