<svg width="24" height="24" viewBox="0 0 24 24" fill="none" xmlns="http://www.w3.org/2000/svg">
<path d="M9.29639 7.14149H14.7041V16.8582H9.29639V7.14149Z" fill="#FF5F00"/>
<path d="M9.63947 12C9.63947 10.0257 10.5665 8.27468 11.9914 7.14164C10.9442 6.3176 9.6223 5.81975 8.18024 5.81975C4.76394 5.81975 2 8.58369 2 12C2 15.4163 4.76394 18.1802 8.18024 18.1802C9.6223 18.1802 10.9442 17.6824 11.9914 16.8584C10.5665 15.7425 9.63947 13.9742 9.63947 12Z" fill="#EB001B"/>
<path d="M21.9997 12C21.9997 15.4163 19.2358 18.1802 15.8195 18.1802C14.3774 18.1802 13.0555 17.6824 12.0083 16.8584C13.4504 15.7253 14.3602 13.9742 14.3602 12C14.3602 10.0257 13.4332 8.27468 12.0083 7.14164C13.0555 6.3176 14.3774 5.81975 15.8195 5.81975C19.2358 5.81975 21.9997 8.60086 21.9997 12Z" fill="#F79E1B"/>
</svg>
