<svg width="24" height="24" viewBox="0 0 24 24" fill="none" xmlns="http://www.w3.org/2000/svg">
<path fill-rule="evenodd" clip-rule="evenodd" d="M14.5 12V6C14.5 4.61929 13.3807 3.5 12 3.5C10.6193 3.5 9.5 4.61929 9.5 6V12C9.5 13.3807 10.6193 14.5 12 14.5C13.3807 14.5 14.5 13.3807 14.5 12ZM12 2C9.79086 2 8 3.79086 8 6V12C8 14.2091 9.79086 16 12 16C14.2091 16 16 14.2091 16 12V6C16 3.79086 14.2091 2 12 2Z" fill="white"/>
<path fill-rule="evenodd" clip-rule="evenodd" d="M5 10.25C5.41421 10.25 5.75 10.5858 5.75 11V12C5.75 15.4518 8.54822 18.25 12 18.25C15.4518 18.25 18.25 15.4518 18.25 12V11C18.25 10.5858 18.5858 10.25 19 10.25C19.4142 10.25 19.75 10.5858 19.75 11V12C19.75 16.2802 16.2802 19.75 12 19.75C7.71979 19.75 4.25 16.2802 4.25 12V11C4.25 10.5858 4.58579 10.25 5 10.25Z" fill="white"/>
<path fill-rule="evenodd" clip-rule="evenodd" d="M12 18.25C12.4142 18.25 12.75 18.5858 12.75 19L12.75 22C12.75 22.4142 12.4142 22.75 12 22.75C11.5858 22.75 11.25 22.4142 11.25 22L11.25 19C11.25 18.5858 11.5858 18.25 12 18.25Z" fill="white"/>
</svg>
