<svg width="24" height="24" viewBox="0 0 24 24" fill="none" xmlns="http://www.w3.org/2000/svg">
<path fill-rule="evenodd" clip-rule="evenodd" d="M20.214 15.6215C20.1428 15.6228 20.0715 15.6234 20 15.6234C13.6487 15.6234 8.5 10.4747 8.5 4.12343C8.5 4.05196 8.50065 3.98063 8.50196 3.90944C6.09658 5.41252 4.5 8.08273 4.5 11.1234C4.5 15.8179 8.30558 19.6234 13 19.6234C16.0407 19.6234 18.7109 18.0269 20.214 15.6215ZM20.9227 14.0814C21.6941 14.0109 22.369 14.7121 22.0365 15.4117C20.431 18.7888 16.9881 21.1234 13 21.1234C7.47715 21.1234 3 16.6463 3 11.1234C3 7.13529 5.33462 3.69243 8.71176 2.08697C9.4113 1.75441 10.1126 2.42935 10.042 3.20069C10.0142 3.50454 10 3.81233 10 4.12343C10 9.64628 14.4772 14.1234 20 14.1234C20.3111 14.1234 20.6189 14.1092 20.9227 14.0814Z" fill="white"/>
</svg>
