<svg width="24" height="24" viewBox="0 0 24 24" fill="none" xmlns="http://www.w3.org/2000/svg">
<path d="M12 10C13.1046 10 14 10.8954 14 12C14 13.1046 13.1046 14 12 14C10.8954 14 10 13.1046 10 12C10 10.8954 10.8954 10 12 10Z" fill="white"/>
<path fill-rule="evenodd" clip-rule="evenodd" d="M3.63069 11.1161C3.14254 11.6043 3.14254 12.3957 3.63069 12.8839L5.04491 14.2981C5.3378 14.591 5.3378 15.0659 5.04491 15.3588C4.75201 15.6517 4.27714 15.6517 3.98425 15.3588L2.57003 13.9445C1.49609 12.8706 1.49609 11.1294 2.57003 10.0555L3.98425 8.64124C4.27714 8.34835 4.75201 8.34835 5.04491 8.64124C5.3378 8.93414 5.3378 9.40901 5.04491 9.7019L3.63069 11.1161Z" fill="white"/>
<path fill-rule="evenodd" clip-rule="evenodd" d="M12.8839 3.63106C12.3957 3.1429 11.6043 3.1429 11.1161 3.63106L9.7019 5.04527C9.40901 5.33816 8.93414 5.33816 8.64124 5.04527C8.34835 4.75238 8.34835 4.2775 8.64124 3.98461L10.0555 2.5704C11.1294 1.49646 12.8706 1.49646 13.9445 2.5704L15.3588 3.98461C15.6517 4.2775 15.6517 4.75238 15.3588 5.04527C15.0659 5.33816 14.591 5.33817 14.2981 5.04527L12.8839 3.63106Z" fill="white"/>
<path fill-rule="evenodd" clip-rule="evenodd" d="M20.3693 12.8839C20.8575 12.3957 20.8575 11.6043 20.3693 11.1161L18.9551 9.7019C18.6622 9.40901 18.6622 8.93414 18.9551 8.64124C19.248 8.34835 19.7229 8.34835 20.0158 8.64124L21.43 10.0555C22.5039 11.1294 22.5039 12.8706 21.43 13.9445L20.0158 15.3588C19.7229 15.6517 19.248 15.6517 18.9551 15.3588C18.6622 15.0659 18.6622 14.591 18.9551 14.2981L20.3693 12.8839Z" fill="white"/>
<path fill-rule="evenodd" clip-rule="evenodd" d="M11.1161 20.3689C11.6043 20.8571 12.3957 20.8571 12.8839 20.3689L14.2981 18.9547C14.591 18.6618 15.0659 18.6618 15.3588 18.9547C15.6517 19.2476 15.6517 19.7225 15.3588 20.0154L13.9445 21.4296C12.8706 22.5035 11.1294 22.5035 10.0555 21.4296L8.64124 20.0154C8.34835 19.7225 8.34835 19.2476 8.64124 18.9547C8.93414 18.6618 9.40901 18.6618 9.7019 18.9547L11.1161 20.3689Z" fill="white"/>
</svg>
