<svg width="24" height="24" viewBox="0 0 24 24" fill="none" xmlns="http://www.w3.org/2000/svg">
<path d="M4 17.5917C4 16.211 5.11929 15.0917 6.5 15.0917C7.88071 15.0917 9 16.211 9 17.5917C9 18.9724 7.88071 20.0917 6.5 20.0917C5.11929 20.0917 4 18.9724 4 17.5917Z" fill="white"/>
<path d="M14 14.5917C14 13.211 15.1193 12.0917 16.5 12.0917C17.8807 12.0917 19 13.211 19 14.5917C19 15.9724 17.8807 17.0917 16.5 17.0917C15.1193 17.0917 14 15.9724 14 14.5917Z" fill="white"/>
<path fill-rule="evenodd" clip-rule="evenodd" d="M18 4.50123C18 4.15681 17.6599 3.91552 17.3348 4.0293L9.33482 6.8293C9.13428 6.89949 9 7.08876 9 7.30123V17.5918C9 17.8679 8.77614 18.0918 8.5 18.0918C8.22386 18.0918 8 17.8679 8 17.5918V7.30123C8 6.66382 8.40284 6.09602 9.00447 5.88545L17.0045 3.08545C17.9797 2.7441 19 3.46796 19 4.50123V14.5918C19 14.8679 18.7761 15.0918 18.5 15.0918C18.2239 15.0918 18 14.8679 18 14.5918V4.50123Z" fill="white"/>
</svg>
