<svg width="24" height="24" viewBox="0 0 24 24" fill="none" xmlns="http://www.w3.org/2000/svg">
<path d="M3 20C3 18.3431 4.34315 17 6 17C7.65685 17 9 18.3431 9 20C9 21.6569 7.65685 23 6 23C4.34315 23 3 21.6569 3 20Z" fill="white"/>
<path d="M15 5C15 3.34315 16.3431 2 18 2C19.6569 2 21 3.34315 21 5C21 6.65685 19.6569 8 18 8C16.3431 8 15 6.65685 15 5Z" fill="white"/>
<path fill-rule="evenodd" clip-rule="evenodd" d="M18 7.5C18.2761 7.5 18.5 7.72386 18.5 8C18.5 8.89252 18.2928 9.62468 17.9024 10.2196C17.5136 10.8121 16.9673 11.2316 16.3486 11.541C15.2326 12.0989 13.79 12.3366 12.422 12.562C12.3082 12.5808 12.1948 12.5994 12.0822 12.6182C10.5651 12.871 9.16416 13.1419 8.13573 13.7704C7.63383 14.0771 7.23244 14.4632 6.95325 14.9684C6.67346 15.4747 6.5 16.1303 6.5 17C6.5 17.2761 6.27614 17.5 6 17.5C5.72386 17.5 5.5 17.2761 5.5 17C5.5 15.9947 5.70154 15.1659 6.078 14.4847C6.45506 13.8024 6.99117 13.2979 7.61427 12.9171C8.83584 12.1706 10.4349 11.879 11.9178 11.6318C12.0174 11.6152 12.1165 11.5988 12.215 11.5825C13.6337 11.3476 14.9278 11.1333 15.9014 10.6465C16.4077 10.3934 16.7989 10.0785 17.0664 9.67098C17.3322 9.26595 17.5 8.73248 17.5 8C17.5 7.72386 17.7239 7.5 18 7.5Z" fill="white"/>
</svg>
