<svg width="24" height="24" viewBox="0 0 24 24" fill="none" xmlns="http://www.w3.org/2000/svg">
<circle cx="12" cy="12" r="4" fill="white"/>
<path fill-rule="evenodd" clip-rule="evenodd" d="M12.9452 4.48052C12.8669 4.47068 12.7884 4.46205 12.7097 4.45465C12.6719 4.4511 12.6348 4.44494 12.5986 4.43637C12.2602 4.3563 12 4.06522 12 3.71068C12 3.31818 12.3187 2.99708 12.71 3.02804C12.7543 3.03154 12.7986 3.03537 12.8428 3.03953C12.9512 3.04973 13.0594 3.06189 13.1672 3.07599C14.7294 3.28031 16.2181 3.89237 17.4789 4.85982C19.0507 6.0659 20.1806 7.75693 20.6933 9.67063C21.2061 11.5843 21.0731 13.6138 20.3149 15.4441C19.5568 17.2745 18.2158 18.8036 16.5 19.7942C14.7842 20.7848 12.7895 21.1816 10.8253 20.923C8.86102 20.6644 7.03698 19.7649 5.63605 18.364C4.23513 16.963 3.33561 15.139 3.07701 13.1747C2.86958 11.5991 3.08383 10.0039 3.68801 8.5488C3.7297 8.44839 3.77325 8.34864 3.81864 8.24962C3.83715 8.20925 3.85596 8.169 3.87508 8.12887C4.04391 7.77454 4.48134 7.65909 4.82125 7.85534C5.12829 8.03261 5.25028 8.4035 5.15045 8.73654C5.13976 8.7722 5.12653 8.80742 5.11071 8.84192C5.07777 8.91378 5.04599 8.98608 5.01536 9.05881C4.49543 10.2935 4.30987 11.6498 4.48621 12.9892C4.70397 14.6433 5.46143 16.1792 6.64111 17.3589C7.82079 18.5386 9.35676 19.296 11.0108 19.5138C12.6648 19.7316 14.3445 19.3974 15.7893 18.5633C17.2341 17.7291 18.3633 16.4415 19.0018 14.9002C19.6402 13.3589 19.7522 11.65 19.3204 10.0385C18.8886 8.42703 17.9372 7.00307 16.6136 5.98746C15.5418 5.16503 14.2745 4.6476 12.9452 4.48052Z" fill="white"/>
<path fill-rule="evenodd" clip-rule="evenodd" d="M12 9.5C11.6717 9.5 11.3466 9.56466 11.0433 9.6903C10.74 9.81594 10.4644 10.0001 10.2322 10.2322C10.0001 10.4644 9.81594 10.74 9.6903 11.0433C9.56466 11.3466 9.5 11.6717 9.5 12C9.5 12.3283 9.56466 12.6534 9.6903 12.9567C9.81594 13.26 10.0001 13.5356 10.2322 13.7678C10.4644 13.9999 10.74 14.1841 11.0433 14.3097C11.3466 14.4353 11.6717 14.5 12 14.5C12.3283 14.5 12.6534 14.4353 12.9567 14.3097C13.26 14.1841 13.5356 13.9999 13.7678 13.7678C13.9999 13.5356 14.1841 13.26 14.3097 12.9567C14.4353 12.6534 14.5 12.3283 14.5 12C14.5 11.6717 14.4353 11.3466 14.3097 11.0433C14.1841 10.74 13.9999 10.4644 13.7678 10.2322C13.5356 10.0001 13.26 9.81594 12.9567 9.6903C12.6534 9.56466 12.3283 9.5 12 9.5ZM10.4693 8.30448C10.9546 8.10346 11.4747 8 12 8C12.5253 8 13.0454 8.10346 13.5307 8.30448C14.016 8.5055 14.457 8.80014 14.8284 9.17157C15.1999 9.54301 15.4945 9.98396 15.6955 10.4693C15.8965 10.9546 16 11.4747 16 12C16 12.5253 15.8965 13.0454 15.6955 13.5307C15.4945 14.016 15.1999 14.457 14.8284 14.8284C14.457 15.1999 14.016 15.4945 13.5307 15.6955C13.0454 15.8965 12.5253 16 12 16C11.4747 16 10.9546 15.8965 10.4693 15.6955C9.98396 15.4945 9.54301 15.1999 9.17157 14.8284C8.80014 14.457 8.5055 14.016 8.30448 13.5307C8.10346 13.0454 8 12.5253 8 12C8 11.4747 8.10346 10.9546 8.30448 10.4693C8.5055 9.98396 8.80014 9.54301 9.17157 9.17157C9.54301 8.80014 9.98397 8.5055 10.4693 8.30448Z" fill="white"/>
</svg>
