<svg width="24" height="24" viewBox="0 0 24 24" fill="none" xmlns="http://www.w3.org/2000/svg">
<path fill-rule="evenodd" clip-rule="evenodd" d="M6.5 5.5V18.5H17.5V8C17.5 6.61929 16.3807 5.5 15 5.5H6.5ZM6 4C5.44772 4 5 4.44772 5 5V19C5 19.5523 5.44772 20 6 20H18C18.5523 20 19 19.5523 19 19V8C19 5.79086 17.2091 4 15 4H6Z" fill="white"/>
<path fill-rule="evenodd" clip-rule="evenodd" d="M9.25 11C9.25 10.5858 9.58579 10.25 10 10.25L14 10.25C14.4142 10.25 14.75 10.5858 14.75 11C14.75 11.4142 14.4142 11.75 14 11.75L10 11.75C9.58579 11.75 9.25 11.4142 9.25 11Z" fill="white"/>
<path fill-rule="evenodd" clip-rule="evenodd" d="M9.25 15C9.25 14.5858 9.58579 14.25 10 14.25L12 14.25C12.4142 14.25 12.75 14.5858 12.75 15C12.75 15.4142 12.4142 15.75 12 15.75L10 15.75C9.58579 15.75 9.25 15.4142 9.25 15Z" fill="white"/>
</svg>
