<svg width="24" height="24" viewBox="0 0 24 24" fill="none" xmlns="http://www.w3.org/2000/svg">
<path fill-rule="evenodd" clip-rule="evenodd" d="M3.25 7C3.25 4.92893 4.92893 3.25 7 3.25H17C19.0711 3.25 20.75 4.92893 20.75 7V8C20.75 8.9665 19.9665 9.75 19 9.75H5C4.0335 9.75 3.25 8.9665 3.25 8V7ZM7 4.75C5.75736 4.75 4.75 5.75736 4.75 7V8C4.75 8.13807 4.86193 8.25 5 8.25H19C19.1381 8.25 19.25 8.13807 19.25 8V7C19.25 5.75736 18.2426 4.75 17 4.75H7Z" fill="white"/>
<path fill-rule="evenodd" clip-rule="evenodd" d="M3.25 13C3.25 12.0335 4.0335 11.25 5 11.25H19C19.9665 11.25 20.75 12.0335 20.75 13V18C20.75 20.0711 19.0711 21.75 17 21.75H7C4.92893 21.75 3.25 20.0711 3.25 18V13ZM5 12.75C4.86193 12.75 4.75 12.8619 4.75 13V18C4.75 19.2426 5.75736 20.25 7 20.25H17C18.2426 20.25 19.25 19.2426 19.25 18V13C19.25 12.8619 19.1381 12.75 19 12.75H5Z" fill="white"/>
</svg>
