<svg width="24" height="24" viewBox="0 0 24 24" fill="none" xmlns="http://www.w3.org/2000/svg">
<path d="M7.0002 18.3128C5.79689 18.3128 4.82123 17.8901 4.07323 17.0449C3.35774 16.1671 3 15.0293 3 13.6313C3 11.8108 3.53661 10.1203 4.60984 8.55982C5.68306 6.96684 7.01647 5.78023 8.61004 5L8.90274 5.58517C8.21978 6.10533 7.61812 6.77178 7.09777 7.58453C6.57742 8.39727 6.20342 9.40507 5.97576 10.6079L7.0002 10.8518C8.13847 11.1118 9.01657 11.5995 9.63449 12.3147C10.2849 12.9974 10.6101 13.8264 10.6101 14.8017C10.6101 15.842 10.2524 16.6873 9.53692 17.3375C8.85396 17.9877 8.00839 18.3128 7.0002 18.3128ZM17.2934 18.3128C16.0901 18.3128 15.1144 17.8901 14.3664 17.0449C13.651 16.1671 13.2932 15.0293 13.2932 13.6313C13.2932 11.8108 13.8298 10.1203 14.903 8.55982C15.9763 6.96684 17.3097 5.78023 18.9033 5L19.196 5.58517C18.513 6.10533 17.9113 6.77178 17.391 7.58453C16.8706 8.39727 16.4966 9.40507 16.269 10.6079L17.2934 10.8518C18.4317 11.1118 19.3098 11.5995 19.9277 12.3147C20.5781 12.9974 20.9034 13.8264 20.9034 14.8017C20.9034 15.842 20.5456 16.6873 19.8301 17.3375C19.1472 17.9877 18.3016 18.3128 17.2934 18.3128Z" fill="white"/>
</svg>
