<svg width="24" height="24" viewBox="0 0 24 24" fill="none" xmlns="http://www.w3.org/2000/svg">
<path fill-rule="evenodd" clip-rule="evenodd" d="M6.75725 10.8356C7.17147 10.8356 7.50725 11.1714 7.50725 11.5856L7.50725 16.4925L12.4141 16.4925C12.8283 16.4925 13.1641 16.8283 13.1641 17.2425C13.1641 17.6567 12.8283 17.9925 12.4141 17.9925L6.75725 17.9925C6.34304 17.9925 6.00725 17.6567 6.00725 17.2425L6.00725 11.5856C6.00725 11.1714 6.34304 10.8356 6.75725 10.8356Z" fill="white"/>
<path fill-rule="evenodd" clip-rule="evenodd" d="M17.2427 13.1644C16.8285 13.1644 16.4927 12.8286 16.4927 12.4144L16.4927 7.50751L11.5859 7.50751C11.1717 7.50751 10.8359 7.17172 10.8359 6.75751C10.8359 6.3433 11.1717 6.00751 11.5859 6.00751L17.2427 6.00751C17.657 6.00751 17.9927 6.3433 17.9927 6.75751L17.9927 12.4144C17.9927 12.8286 17.657 13.1644 17.2427 13.1644Z" fill="white"/>
</svg>
