<svg width="24" height="24" viewBox="0 0 24 24" fill="none" xmlns="http://www.w3.org/2000/svg">
<path fill-rule="evenodd" clip-rule="evenodd" d="M13.1644 6.75725C13.1644 7.17147 12.8286 7.50725 12.4144 7.50725L7.50751 7.50725L7.50751 12.4141C7.50751 12.8283 7.17172 13.1641 6.75751 13.1641C6.34329 13.1641 6.00751 12.8283 6.00751 12.4141L6.00751 6.75725C6.00751 6.34304 6.3433 6.00725 6.75751 6.00725L12.4144 6.00725C12.8286 6.00725 13.1644 6.34304 13.1644 6.75725Z" fill="white"/>
<path fill-rule="evenodd" clip-rule="evenodd" d="M10.8356 17.2427C10.8356 16.8285 11.1714 16.4927 11.5856 16.4927L16.4925 16.4927L16.4925 11.5859C16.4925 11.1717 16.8283 10.8359 17.2425 10.8359C17.6567 10.8359 17.9925 11.1717 17.9925 11.5859L17.9925 17.2427C17.9925 17.657 17.6567 17.9927 17.2425 17.9927L11.5856 17.9927C11.1714 17.9927 10.8356 17.657 10.8356 17.2427Z" fill="white"/>
</svg>
