<svg width="24" height="24" viewBox="0 0 24 24" fill="none" xmlns="http://www.w3.org/2000/svg">
<path fill-rule="evenodd" clip-rule="evenodd" d="M19.5 3C19.5 2.72386 19.2761 2.5 19 2.5C18.7239 2.5 18.5 2.72386 18.5 3V3.03095C16.5268 3.277 15 4.96019 15 7L15 15H18.5L18.5 21C18.5 21.2761 18.7239 21.5 19 21.5C19.2761 21.5 19.5 21.2761 19.5 21L19.5 3ZM7.5 11.9585C6.08114 11.7205 5 10.4865 5 9V6C5 4.34315 6.34315 3 8 3C9.65685 3 11 4.34315 11 6V9C11 10.4865 9.91886 11.7205 8.5 11.9585L8.5 21C8.5 21.2761 8.27614 21.5 8 21.5C7.72386 21.5 7.5 21.2761 7.5 21L7.5 11.9585Z" fill="white"/>
</svg>
