<svg width="24" height="24" viewBox="0 0 24 24" fill="none" xmlns="http://www.w3.org/2000/svg">
<path fill-rule="evenodd" clip-rule="evenodd" d="M8.53033 9.46967C8.82322 9.76256 8.82322 10.2374 8.53033 10.5303L7.06066 12L8.53033 13.4697C8.82322 13.7626 8.82322 14.2374 8.53033 14.5303C8.23744 14.8232 7.76256 14.8232 7.46967 14.5303L5.46967 12.5303C5.32902 12.3897 5.25 12.1989 5.25 12C5.25 11.8011 5.32902 11.6103 5.46967 11.4697L7.46967 9.46967C7.76256 9.17678 8.23744 9.17678 8.53033 9.46967Z" fill="white"/>
<path fill-rule="evenodd" clip-rule="evenodd" d="M15.4697 14.5303C15.1768 14.2374 15.1768 13.7626 15.4697 13.4697L16.9393 12L15.4697 10.5303C15.1768 10.2374 15.1768 9.76256 15.4697 9.46967C15.7626 9.17678 16.2374 9.17678 16.5303 9.46967L18.5303 11.4697C18.8232 11.7626 18.8232 12.2374 18.5303 12.5303L16.5303 14.5303C16.2374 14.8232 15.7626 14.8232 15.4697 14.5303Z" fill="white"/>
<path fill-rule="evenodd" clip-rule="evenodd" d="M16 5.5L8 5.5C4.41015 5.5 1.5 8.41015 1.5 12C1.5 15.5899 4.41015 18.5 8 18.5L16 18.5C19.5899 18.5 22.5 15.5898 22.5 12C22.5 8.41015 19.5899 5.5 16 5.5ZM-3.49691e-07 12C-1.56562e-07 16.4183 3.58172 20 8 20L16 20C20.4183 20 24 16.4183 24 12C24 7.58172 20.4183 4 16 4L8 4C3.58172 4 -5.4282e-07 7.58172 -3.49691e-07 12Z" fill="white"/>
</svg>
