<svg width="24" height="24" viewBox="0 0 24 24" fill="none" xmlns="http://www.w3.org/2000/svg">
<path fill-rule="evenodd" clip-rule="evenodd" d="M14.5303 8.53033C14.2374 8.82322 13.7626 8.82322 13.4697 8.53033L12 7.06066L10.5303 8.53033C10.2374 8.82322 9.76256 8.82322 9.46967 8.53033C9.17678 8.23744 9.17678 7.76256 9.46967 7.46967L11.4697 5.46967C11.6103 5.32902 11.8011 5.25 12 5.25C12.1989 5.25 12.3897 5.32902 12.5303 5.46967L14.5303 7.46967C14.8232 7.76256 14.8232 8.23744 14.5303 8.53033Z" fill="white"/>
<path fill-rule="evenodd" clip-rule="evenodd" d="M9.46967 15.4697C9.76256 15.1768 10.2374 15.1768 10.5303 15.4697L12 16.9393L13.4697 15.4697C13.7626 15.1768 14.2374 15.1768 14.5303 15.4697C14.8232 15.7626 14.8232 16.2374 14.5303 16.5303L12.5303 18.5303C12.2374 18.8232 11.7626 18.8232 11.4697 18.5303L9.46967 16.5303C9.17678 16.2374 9.17678 15.7626 9.46967 15.4697Z" fill="white"/>
<path fill-rule="evenodd" clip-rule="evenodd" d="M18.5 16V8C18.5 4.41015 15.5899 1.5 12 1.5C8.41015 1.5 5.5 4.41015 5.5 8V16C5.5 19.5899 8.41015 22.5 12 22.5C15.5899 22.5 18.5 19.5899 18.5 16ZM12 0C7.58172 0 4 3.58172 4 8V16C4 20.4183 7.58172 24 12 24C16.4183 24 20 20.4183 20 16V8C20 3.58172 16.4183 0 12 0Z" fill="white"/>
</svg>
