<svg width="24" height="24" viewBox="0 0 24 24" fill="none" xmlns="http://www.w3.org/2000/svg">
<path fill-rule="evenodd" clip-rule="evenodd" d="M11.75 3C6.91751 3 3 6.91751 3 11.75C3 16.5825 6.91751 20.5 11.75 20.5C13.8963 20.5 15.862 19.7273 17.3843 18.4448L20.2198 21.2803C20.5127 21.5732 20.9876 21.5732 21.2804 21.2803C21.5733 20.9874 21.5733 20.5126 21.2804 20.2197L18.4449 17.3842C19.7273 15.8619 20.5 13.8962 20.5 11.75C20.5 6.91751 16.5825 3 11.75 3ZM4.5 11.75C4.5 7.74594 7.74594 4.5 11.75 4.5C15.7541 4.5 19 7.74594 19 11.75C19 15.7541 15.7541 19 11.75 19C7.74594 19 4.5 15.7541 4.5 11.75Z" fill="white"/>
</svg>
