<svg width="24" height="24" viewBox="0 0 24 24" fill="none" xmlns="http://www.w3.org/2000/svg">
<path fill-rule="evenodd" clip-rule="evenodd" d="M11.1248 2.63918C11.6662 2.32657 12.3333 2.32657 12.8748 2.63918L19.669 6.56183C20.2105 6.87444 20.544 7.45216 20.544 8.07737V15.9227C20.544 16.5479 20.2105 17.1256 19.669 17.4382L12.8748 21.3609C12.3333 21.6735 11.6662 21.6735 11.1248 21.3609L4.33057 17.4382C3.78912 17.1256 3.45557 16.5479 3.45557 15.9227V8.07737C3.45557 7.45216 3.78911 6.87444 4.33057 6.56183L11.1248 2.63918ZM12.1248 3.93822C12.0474 3.89356 11.9521 3.89356 11.8748 3.93822L5.08057 7.86087C5.00322 7.90553 4.95557 7.98806 4.95557 8.07737V15.9227C4.95557 16.012 5.00322 16.0945 5.08057 16.1392L11.8748 20.0618C11.9521 20.1065 12.0474 20.1065 12.1248 20.0618L18.919 16.1392C18.9964 16.0945 19.044 16.012 19.044 15.9227V8.07737C19.044 7.98806 18.9964 7.90553 18.919 7.86087L12.1248 3.93822Z" fill="white"/>
<path fill-rule="evenodd" clip-rule="evenodd" d="M12 9.75C10.7574 9.75 9.75 10.7574 9.75 12C9.75 13.2426 10.7574 14.25 12 14.25C13.2426 14.25 14.25 13.2426 14.25 12C14.25 10.7574 13.2426 9.75 12 9.75ZM8.25 12C8.25 9.92893 9.92893 8.25 12 8.25C14.0711 8.25 15.75 9.92893 15.75 12C15.75 14.0711 14.0711 15.75 12 15.75C9.92893 15.75 8.25 14.0711 8.25 12Z" fill="white"/>
</svg>
