<svg width="24" height="24" viewBox="0 0 24 24" fill="none" xmlns="http://www.w3.org/2000/svg">
<path fill-rule="evenodd" clip-rule="evenodd" d="M2.25 7C2.25 6.58579 2.58579 6.25 3 6.25L13 6.25C13.4142 6.25 13.75 6.58579 13.75 7C13.75 7.41421 13.4142 7.75 13 7.75L3 7.75C2.58579 7.75 2.25 7.41421 2.25 7Z" fill="white"/>
<path fill-rule="evenodd" clip-rule="evenodd" d="M19.25 7C19.25 6.58579 19.5858 6.25 20 6.25H21C21.4142 6.25 21.75 6.58579 21.75 7C21.75 7.41421 21.4142 7.75 21 7.75H20C19.5858 7.75 19.25 7.41421 19.25 7Z" fill="white"/>
<path d="M15 5.5C15 4.67157 15.6716 4 16.5 4C17.3284 4 18 4.67157 18 5.5V8.5C18 9.32843 17.3284 10 16.5 10C15.6716 10 15 9.32843 15 8.5V5.5Z" fill="white"/>
<path fill-rule="evenodd" clip-rule="evenodd" d="M21.75 17C21.75 17.4142 21.4142 17.75 21 17.75L11 17.75C10.5858 17.75 10.25 17.4142 10.25 17C10.25 16.5858 10.5858 16.25 11 16.25L21 16.25C21.4142 16.25 21.75 16.5858 21.75 17Z" fill="white"/>
<path fill-rule="evenodd" clip-rule="evenodd" d="M4.75 17C4.75 17.4142 4.41421 17.75 4 17.75L3 17.75C2.58579 17.75 2.25 17.4142 2.25 17C2.25 16.5858 2.58579 16.25 3 16.25L4 16.25C4.41421 16.25 4.75 16.5858 4.75 17Z" fill="white"/>
<path d="M9 18.5C9 19.3284 8.32843 20 7.5 20C6.67157 20 6 19.3284 6 18.5L6 15.5C6 14.6716 6.67157 14 7.5 14C8.32843 14 9 14.6716 9 15.5L9 18.5Z" fill="white"/>
</svg>
