<svg width="24" height="24" viewBox="0 0 24 24" fill="none" xmlns="http://www.w3.org/2000/svg">
<path d="M8.44721 13.2236C8.4918 13.1344 8.6881 13 9 13C9.3119 13 9.5082 13.1344 9.55279 13.2236C9.67628 13.4706 9.97662 13.5707 10.2236 13.4472C10.4706 13.3237 10.5707 13.0234 10.4472 12.7764C10.1585 12.1989 9.4881 12 9 12C8.5119 12 7.84153 12.1989 7.55279 12.7764C7.42929 13.0234 7.5294 13.3237 7.77639 13.4472C8.02338 13.5707 8.32372 13.4706 8.44721 13.2236Z" fill="white"/>
<path d="M15 13C14.6881 13 14.4918 13.1344 14.4472 13.2236C14.3237 13.4706 14.0234 13.5707 13.7764 13.4472C13.5294 13.3237 13.4293 13.0234 13.5528 12.7764C13.8415 12.1989 14.5119 12 15 12C15.4881 12 16.1585 12.1989 16.4472 12.7764C16.5707 13.0234 16.4706 13.3237 16.2236 13.4472C15.9766 13.5707 15.6763 13.4706 15.5528 13.2236C15.5082 13.1344 15.3119 13 15 13Z" fill="white"/>
<path d="M12.5528 17.2764C12.5082 17.3656 12.3119 17.5 12 17.5C11.6881 17.5 11.4918 17.3656 11.4472 17.2764C11.3237 17.0294 11.0234 16.9293 10.7764 17.0528C10.5294 17.1763 10.4293 17.4766 10.5528 17.7236C10.8415 18.3011 11.5119 18.5 12 18.5C12.4881 18.5 13.1585 18.3011 13.4472 17.7236C13.5707 17.4766 13.4706 17.1763 13.2236 17.0528C12.9766 16.9293 12.6763 17.0294 12.5528 17.2764Z" fill="white"/>
<path fill-rule="evenodd" clip-rule="evenodd" d="M5.04037 16.197L5.12312 16.18C5.37697 17.2748 5.91214 18.6662 6.82751 19.8658C7.93223 21.3135 9.60945 22.5 12 22.5C14.374 22.5 16.0492 21.4128 17.1604 20.0686C18.2294 18.7754 18.7839 17.2396 18.9777 16.1714C19.4835 15.2781 20.1616 13.9401 20.6979 12.4246C21.2478 10.8705 21.6609 9.09571 21.5616 7.40814C21.4614 5.70596 20.8364 4.07255 19.2988 2.87852C17.7781 1.69766 15.4325 1 12 1C8.56859 1 6.25016 1.6972 4.76605 2.88279C3.26439 4.0824 2.69195 5.72066 2.62539 7.41791C2.55938 9.10102 2.98735 10.8717 3.51075 12.4181C3.93542 13.6728 4.43492 14.8122 4.80487 15.6561C4.89131 15.8533 4.97068 16.0344 5.04037 16.197ZM6.55273 7.15141C5.90057 8.45573 5.2728 10.5136 5.0688 13.7269C4.86236 13.2198 4.65246 12.6722 4.45797 12.0975C3.95014 10.5971 3.56562 8.96149 3.62462 7.4571C3.68307 5.96684 4.17313 4.63635 5.3902 3.66409C6.62482 2.6778 8.68136 2 12 2C13.115 2 14.0916 2.07652 14.9453 2.21576C11.6958 2.76417 9.23342 4.22877 8.21233 5.08833L8.209 5.09032C8.1758 5.11024 8.13243 5.13803 8.08041 5.17519C7.97628 5.24957 7.838 5.3611 7.67763 5.52147C7.35637 5.84273 6.95045 6.35596 6.55273 7.15141ZM9.83562 5.15962C12.145 5.51877 14.2694 6.29414 15.8962 7.75272C17.5102 9.19978 18.585 11.274 18.9022 14.1465C19.1958 13.5272 19.4936 12.8303 19.7552 12.091C20.2834 10.5983 20.6516 8.9668 20.5633 7.46687C20.4759 5.98155 19.9447 4.6462 18.6854 3.66835C18.3687 3.42237 18.0016 3.19571 17.5781 2.99394C17.5527 2.99793 17.5266 3 17.5 3C14.1616 3 11.4002 4.19292 9.83562 5.15962ZM15.2287 8.49729C13.5659 7.00655 11.2541 6.27483 8.62712 6.01436C8.56751 6.05954 8.48458 6.12874 8.38474 6.22858C8.1435 6.46981 7.79943 6.89408 7.44715 7.59862C6.76951 8.95391 6.05848 11.3532 6.00337 15.4819C6.16983 16.5006 6.66825 18.0087 7.62249 19.2592C8.58444 20.5198 9.99055 21.5 12 21.5C14.026 21.5 15.4341 20.5872 16.3896 19.4314C17.3431 18.278 17.8375 16.888 17.9999 15.9583C17.9916 12.3383 16.9049 10.0001 15.2287 8.49729Z" fill="white"/>
</svg>
