<svg width="24" height="24" viewBox="0 0 24 24" fill="none" xmlns="http://www.w3.org/2000/svg">
<path fill-rule="evenodd" clip-rule="evenodd" d="M6 6.75C5.86193 6.75 5.75 6.86193 5.75 7V19.4404C5.75 19.6227 5.93871 19.7437 6.10432 19.6676L11.2697 17.2957C11.7333 17.0829 12.2667 17.0829 12.7303 17.2957L17.8957 19.6676C18.0613 19.7437 18.25 19.6227 18.25 19.4404V7C18.25 6.86193 18.1381 6.75 18 6.75H6ZM4.25 7C4.25 6.0335 5.0335 5.25 6 5.25H18C18.9665 5.25 19.75 6.0335 19.75 7V19.4404C19.75 20.7161 18.429 21.5631 17.2697 21.0308L12.1043 18.6589C12.0381 18.6285 11.9619 18.6285 11.8957 18.6589L6.73026 21.0308C5.57098 21.5631 4.25 20.7161 4.25 19.4404V7Z" fill="white"/>
<path fill-rule="evenodd" clip-rule="evenodd" d="M7.5 3.75C7.36193 3.75 7.25 3.86193 7.25 4V6H5.75V4C5.75 3.0335 6.5335 2.25 7.5 2.25H16.5C17.4665 2.25 18.25 3.0335 18.25 4V6H16.75V4C16.75 3.86193 16.6381 3.75 16.5 3.75H7.5Z" fill="white"/>
</svg>
