<svg width="24" height="24" viewBox="0 0 24 24" fill="none" xmlns="http://www.w3.org/2000/svg">
<path fill-rule="evenodd" clip-rule="evenodd" d="M1.55827 9.36345C1.33846 7.71487 2.62098 6.25 4.28415 6.25H19.7154C21.3786 6.25 22.6611 7.71487 22.4413 9.36345L20.9746 20.3635C20.7925 21.7297 19.6271 22.75 18.2487 22.75H5.75081C4.37251 22.75 3.2071 21.7297 3.02494 20.3635L1.55827 9.36345ZM4.28415 7.75C3.52816 7.75 2.9452 8.41585 3.04511 9.1652L4.51178 20.1652C4.59458 20.7862 5.12431 21.25 5.75081 21.25H18.2487C18.8753 21.25 19.405 20.7862 19.4878 20.1652L20.9544 9.1652C21.0544 8.41585 20.4714 7.75 19.7154 7.75H4.28415Z" fill="white"/>
<path fill-rule="evenodd" clip-rule="evenodd" d="M3.47339 4.27364C3.3115 2.65475 4.58278 1.25 6.20974 1.25H17.7898C19.4168 1.25 20.688 2.65475 20.5261 4.27364L20.1785 7.75H3.82102L3.47339 4.27364ZM6.20974 2.75C5.47021 2.75 4.89236 3.38852 4.96594 4.12438L5.17851 6.25H18.821L19.0336 4.12438C19.1072 3.38852 18.5293 2.75 17.7898 2.75H6.20974Z" fill="white"/>
</svg>
