<svg width="24" height="24" viewBox="0 0 24 24" fill="none" xmlns="http://www.w3.org/2000/svg">
<path d="M11.5515 4.90849C11.7349 4.53687 12.2648 4.53687 12.4482 4.90849L14.2347 8.52821C14.3075 8.67578 14.4483 8.77807 14.6111 8.80173L18.6057 9.38218C19.0158 9.44177 19.1796 9.94576 18.8828 10.235L15.9923 13.0526C15.8745 13.1675 15.8207 13.333 15.8485 13.4952L16.5309 17.4736C16.6009 17.8821 16.1722 18.1935 15.8054 18.0007L12.2325 16.1223C12.0869 16.0457 11.9128 16.0457 11.7672 16.1223L8.1943 18.0007C7.82749 18.1935 7.39877 17.8821 7.46883 17.4736L8.15119 13.4952C8.17901 13.333 8.12523 13.1675 8.00739 13.0526L5.11687 10.235C4.82011 9.94576 4.98387 9.44177 5.39398 9.38218L9.38858 8.80173C9.55143 8.77807 9.69221 8.67578 9.76505 8.52821L11.5515 4.90849Z" fill="white"/>
<path fill-rule="evenodd" clip-rule="evenodd" d="M10.8793 4.57657C11.3378 3.64751 12.6626 3.64752 13.1211 4.57657L14.8494 8.07843L18.7139 8.63998C19.7392 8.78896 20.1486 10.0489 19.4067 10.7721L16.6103 13.4979L17.2704 17.3468C17.4455 18.368 16.3738 19.1467 15.4567 18.6645L12.0002 16.8473L8.54364 18.6645C7.6266 19.1467 6.55482 18.368 6.72996 17.3468L7.3901 13.4979L4.5937 10.7721C3.8518 10.0489 4.26119 8.78896 5.28646 8.63998L9.15099 8.07843L10.8793 4.57657ZM12.0002 5.69466L10.4379 8.86014C10.2559 9.22906 9.9039 9.48478 9.49676 9.54394L6.00345 10.0515L8.53123 12.5155C8.82584 12.8027 8.96027 13.2164 8.89073 13.6219L8.294 17.1011L11.4185 15.4585C11.7827 15.267 12.2177 15.267 12.5819 15.4585L15.7064 17.1011L15.1096 13.6219C15.0401 13.2164 15.1745 12.8027 15.4691 12.5155L17.9969 10.0515L14.5036 9.54394C14.0965 9.48478 13.7445 9.22907 13.5624 8.86014L12.0002 5.69466Z" fill="white"/>
</svg>
