<svg width="24" height="24" viewBox="0 0 24 24" fill="none" xmlns="http://www.w3.org/2000/svg">
<path fill-rule="evenodd" clip-rule="evenodd" d="M10.8793 4.57657C11.3378 3.64751 12.6626 3.64752 13.1211 4.57657L14.8494 8.07843L18.7139 8.63998C19.7392 8.78896 20.1486 10.0489 19.4067 10.7721L16.6103 13.4979L17.2704 17.3468C17.4455 18.368 16.3738 19.1467 15.4567 18.6645L12.0002 16.8473L8.54364 18.6645C7.6266 19.1467 6.55482 18.368 6.72996 17.3468L7.3901 13.4979L4.5937 10.7721C3.8518 10.0489 4.26119 8.78896 5.28646 8.63998L9.15099 8.07843L10.8793 4.57657ZM12.0002 5.69466L10.4379 8.86014C10.2559 9.22906 9.9039 9.48478 9.49676 9.54394L6.00345 10.0515L8.53123 12.5155C8.82584 12.8027 8.96027 13.2164 8.89073 13.6219L8.294 17.1011L11.4185 15.4585C11.7827 15.267 12.2177 15.267 12.5819 15.4585L15.7064 17.1011L15.1096 13.6219C15.0401 13.2164 15.1745 12.8027 15.4691 12.5155L17.9969 10.0515L14.5036 9.54394C14.0965 9.48478 13.7445 9.22907 13.5624 8.86014L12.0002 5.69466Z" fill="white"/>
</svg>
