<svg width="24" height="24" viewBox="0 0 24 24" fill="none" xmlns="http://www.w3.org/2000/svg">
<path fill-rule="evenodd" clip-rule="evenodd" d="M12 17.5C15.0376 17.5 17.5 15.0376 17.5 12C17.5 8.96243 15.0376 6.5 12 6.5C8.96243 6.5 6.5 8.96243 6.5 12C6.5 15.0376 8.96243 17.5 12 17.5ZM12 19C15.866 19 19 15.866 19 12C19 8.13401 15.866 5 12 5C8.13401 5 5 8.13401 5 12C5 15.866 8.13401 19 12 19Z" fill="white"/>
<path fill-rule="evenodd" clip-rule="evenodd" d="M12 1.25C12.4142 1.25 12.75 1.58579 12.75 2V3C12.75 3.41421 12.4142 3.75 12 3.75C11.5858 3.75 11.25 3.41421 11.25 3V2C11.25 1.58579 11.5858 1.25 12 1.25Z" fill="white"/>
<path fill-rule="evenodd" clip-rule="evenodd" d="M12 20.25C12.4142 20.25 12.75 20.5858 12.75 21V22C12.75 22.4142 12.4142 22.75 12 22.75C11.5858 22.75 11.25 22.4142 11.25 22V21C11.25 20.5858 11.5858 20.25 12 20.25Z" fill="white"/>
<path fill-rule="evenodd" clip-rule="evenodd" d="M22.75 12C22.75 12.4142 22.4142 12.75 22 12.75L21 12.75C20.5858 12.75 20.25 12.4142 20.25 12C20.25 11.5858 20.5858 11.25 21 11.25L22 11.25C22.4142 11.25 22.75 11.5858 22.75 12Z" fill="white"/>
<path fill-rule="evenodd" clip-rule="evenodd" d="M3.75 12C3.75 12.4142 3.41421 12.75 3 12.75L2 12.75C1.58579 12.75 1.25 12.4142 1.25 12C1.25 11.5858 1.58579 11.25 2 11.25L3 11.25C3.41421 11.25 3.75 11.5858 3.75 12Z" fill="white"/>
<path fill-rule="evenodd" clip-rule="evenodd" d="M19.6016 4.3986C19.8945 4.69149 19.8945 5.16637 19.6016 5.45926L18.8945 6.16637C18.6016 6.45926 18.1267 6.45926 17.8339 6.16637C17.541 5.87347 17.541 5.3986 17.8339 5.10571L18.541 4.3986C18.8339 4.10571 19.3087 4.10571 19.6016 4.3986Z" fill="white"/>
<path fill-rule="evenodd" clip-rule="evenodd" d="M6.16656 17.8336C6.45945 18.1265 6.45945 18.6014 6.16656 18.8943L5.45945 19.6014C5.16656 19.8943 4.69169 19.8943 4.39879 19.6014C4.1059 19.3085 4.1059 18.8336 4.39879 18.5407L5.1059 17.8336C5.39879 17.5407 5.87367 17.5407 6.16656 17.8336Z" fill="white"/>
<path fill-rule="evenodd" clip-rule="evenodd" d="M19.6015 19.6014C19.3086 19.8943 18.8337 19.8943 18.5408 19.6014L17.8337 18.8943C17.5408 18.6014 17.5408 18.1265 17.8337 17.8336C18.1266 17.5407 18.6015 17.5407 18.8944 17.8336L19.6015 18.5407C19.8944 18.8336 19.8944 19.3085 19.6015 19.6014Z" fill="white"/>
<path fill-rule="evenodd" clip-rule="evenodd" d="M6.16645 6.16637C5.87355 6.45926 5.39868 6.45926 5.10579 6.16637L4.39868 5.45926C4.10579 5.16637 4.10579 4.6915 4.39868 4.3986C4.69157 4.10571 5.16645 4.10571 5.45934 4.3986L6.16645 5.10571C6.45934 5.3986 6.45934 5.87348 6.16645 6.16637Z" fill="white"/>
</svg>
