<svg width="24" height="24" viewBox="0 0 24 24" fill="none" xmlns="http://www.w3.org/2000/svg">
<path fill-rule="evenodd" clip-rule="evenodd" d="M12 6.75C8.54822 6.75 5.75 9.54822 5.75 13C5.75 16.4518 8.54822 19.25 12 19.25C15.4518 19.25 18.25 16.4518 18.25 13C18.25 9.54822 15.4518 6.75 12 6.75ZM4.25 13C4.25 8.71979 7.71979 5.25 12 5.25C16.2802 5.25 19.75 8.71979 19.75 13C19.75 17.2802 16.2802 20.75 12 20.75C7.71979 20.75 4.25 17.2802 4.25 13Z" fill="white"/>
<path fill-rule="evenodd" clip-rule="evenodd" d="M12 8.75C12.4142 8.75 12.75 9.08579 12.75 9.5V12.6395L14.9685 14.4143C15.292 14.6731 15.3444 15.1451 15.0857 15.4685C14.8269 15.792 14.3549 15.8444 14.0315 15.5857L11.5315 13.5857C11.3536 13.4433 11.25 13.2278 11.25 13V9.5C11.25 9.08579 11.5858 8.75 12 8.75Z" fill="white"/>
<path fill-rule="evenodd" clip-rule="evenodd" d="M8.25 2C8.25 1.58579 8.58579 1.25 9 1.25H15C15.4142 1.25 15.75 1.58579 15.75 2C15.75 2.41421 15.4142 2.75 15 2.75H9C8.58579 2.75 8.25 2.41421 8.25 2Z" fill="white"/>
<path fill-rule="evenodd" clip-rule="evenodd" d="M12 1.25C12.4142 1.25 12.75 1.58579 12.75 2L12.75 6C12.75 6.41421 12.4142 6.75 12 6.75C11.5858 6.75 11.25 6.41421 11.25 6L11.25 2C11.25 1.58579 11.5858 1.25 12 1.25Z" fill="white"/>
<path fill-rule="evenodd" clip-rule="evenodd" d="M19.5303 6.46967C19.8232 6.76256 19.8232 7.23744 19.5303 7.53033L18.0303 9.03033C17.7374 9.32322 17.2626 9.32322 16.9697 9.03033C16.6768 8.73744 16.6768 8.26256 16.9697 7.96967L18.4697 6.46967C18.7626 6.17678 19.2374 6.17678 19.5303 6.46967Z" fill="white"/>
</svg>
