<svg width="24" height="24" viewBox="0 0 24 24" fill="none" xmlns="http://www.w3.org/2000/svg">
<path fill-rule="evenodd" clip-rule="evenodd" d="M15 3.5L9 3.5C7.067 3.5 5.5 5.067 5.5 7L5.5 12.063C5.65981 12.0219 5.82735 12 6 12L18 12C18.1726 12 18.3402 12.0219 18.5 12.063V7C18.5 5.067 16.933 3.5 15 3.5ZM5.5 18L5.5 14C5.5 13.7239 5.72386 13.5 6 13.5L18 13.5C18.2761 13.5 18.5 13.7239 18.5 14V18C18.5 18.2761 18.2761 18.5 18 18.5L6 18.5C5.72386 18.5 5.5 18.2761 5.5 18ZM4 7L4 14L4 18C4 19.1046 4.89543 20 6 20L18 20C19.1046 20 20 19.1046 20 18V14V7C20 4.23858 17.7614 2 15 2L9 2C6.23858 2 4 4.23858 4 7ZM8 17C8.55228 17 9 16.5523 9 16C9 15.4477 8.55228 15 8 15C7.44772 15 7 15.4477 7 16C7 16.5523 7.44772 17 8 17ZM17 16C17 16.5523 16.5523 17 16 17C15.4477 17 15 16.5523 15 16C15 15.4477 15.4477 15 16 15C16.5523 15 17 15.4477 17 16ZM5 21.5C4.72386 21.5 4.5 21.7239 4.5 22C4.5 22.2761 4.72386 22.5 5 22.5L19 22.5C19.2761 22.5 19.5 22.2761 19.5 22C19.5 21.7239 19.2761 21.5 19 21.5L5 21.5Z" fill="white"/>
</svg>
