<svg width="24" height="24" viewBox="0 0 24 24" fill="none" xmlns="http://www.w3.org/2000/svg">
<path fill-rule="evenodd" clip-rule="evenodd" d="M15.5303 13.5303C15.2374 13.8232 14.7626 13.8232 14.4697 13.5303L12 11.0607L9.53033 13.5303C9.23744 13.8232 8.76256 13.8232 8.46967 13.5303C8.17678 13.2374 8.17678 12.7626 8.46967 12.4697L11.4697 9.46967C11.7626 9.17678 12.2374 9.17678 12.5303 9.46967L15.5303 12.4697C15.8232 12.7626 15.8232 13.2374 15.5303 13.5303Z" fill="white"/>
<path fill-rule="evenodd" clip-rule="evenodd" d="M12 2.25C17.3848 2.25 21.75 6.61522 21.75 12C21.75 17.3848 17.3848 21.75 12 21.75C6.61522 21.75 2.25 17.3848 2.25 12C2.25 6.61522 6.61522 2.25 12 2.25ZM20.25 12C20.25 7.44365 16.5563 3.75 12 3.75C7.44365 3.75 3.75 7.44365 3.75 12C3.75 16.5563 7.44365 20.25 12 20.25C16.5563 20.25 20.25 16.5563 20.25 12Z" fill="white"/>
</svg>
