<svg width="24" height="24" viewBox="0 0 24 24" fill="none" xmlns="http://www.w3.org/2000/svg">
<path fill-rule="evenodd" clip-rule="evenodd" d="M3.25 9C3.25 7.48122 4.48122 6.25 6 6.25H13C14.5188 6.25 15.75 7.48122 15.75 9V15C15.75 16.5188 14.5188 17.75 13 17.75H6C4.48122 17.75 3.25 16.5188 3.25 15V9ZM6 7.75C5.30964 7.75 4.75 8.30964 4.75 9V15C4.75 15.6904 5.30964 16.25 6 16.25H13C13.6904 16.25 14.25 15.6904 14.25 15V9C14.25 8.30964 13.6904 7.75 13 7.75H6Z" fill="white"/>
<path fill-rule="evenodd" clip-rule="evenodd" d="M19.25 8.53876C19.25 8.35785 19.0638 8.23683 18.8985 8.31031L16.4923 9.3797C16.0409 9.58033 15.75 10.028 15.75 10.522V13.478C15.75 13.972 16.0409 14.4197 16.4923 14.6203L18.8985 15.6897C19.0638 15.7632 19.25 15.6422 19.25 15.4612V8.53876ZM18.2893 6.93959C19.4465 6.42526 20.75 7.27236 20.75 8.53876V15.4612C20.75 16.7276 19.4465 17.5747 18.2893 17.0604L15.8831 15.991C14.89 15.5496 14.25 14.5648 14.25 13.478V10.522C14.25 9.4352 14.89 8.45036 15.8831 8.00898L18.2893 6.93959Z" fill="white"/>
</svg>
