<svg width="24" height="24" viewBox="0 0 24 24" fill="none" xmlns="http://www.w3.org/2000/svg">
<g clip-path="url(#clip0_2174_118389)">
<path d="M10.4002 15.5691H8.45605L9.67208 8.05014H11.6162L10.4002 15.5691Z" fill="#00579F"/>
<path d="M17.4477 8.23387C17.0642 8.08173 16.456 7.91376 15.704 7.91376C13.784 7.91376 12.432 8.93757 12.4237 10.4013C12.4078 11.4813 13.3917 12.0811 14.1276 12.4412C14.8798 12.8091 15.1355 13.0493 15.1355 13.3773C15.1278 13.881 14.5277 14.1132 13.9679 14.1132C13.1917 14.1132 12.7758 13.9935 12.1438 13.7132L11.8878 13.5931L11.6157 15.2809C12.0717 15.4887 12.9118 15.673 13.784 15.6811C15.824 15.6811 17.1521 14.6731 17.1678 13.1133C17.1756 12.2574 16.656 11.6015 15.5359 11.0656C14.8559 10.7215 14.4394 10.4896 14.4394 10.1375C14.4474 9.81754 14.7917 9.48977 15.5593 9.48977C16.1913 9.47371 16.6557 9.62564 17.0075 9.77767L17.1833 9.85751L17.4477 8.23387Z" fill="#00579F"/>
<path d="M20.0319 12.9054C20.192 12.4735 20.8081 10.8017 20.8081 10.8017C20.8 10.8177 20.9679 10.3617 21.0639 10.0818L21.1998 10.7297C21.1998 10.7297 21.5679 12.5295 21.6479 12.9054H20.0319ZM22.4317 8.05014H20.9279C20.4642 8.05014 20.1118 8.18601 19.9118 8.674L17.0239 15.569H19.0639C19.0639 15.569 19.3997 14.641 19.4719 14.4411H21.9681C22.0239 14.7051 22.2001 15.569 22.2001 15.569H24.0002L22.4317 8.05014Z" fill="#00579F"/>
<path d="M6.83175 8.05014L4.92775 13.1774L4.7197 12.1375C4.36769 10.9377 3.26371 9.63402 2.03174 8.98582L3.77573 15.5612H5.83164L8.88755 8.05014H6.83175Z" fill="#00579F"/>
<path d="M3.16 8.05014H0.0320006L0 8.20206C2.44003 8.82603 4.05602 10.3301 4.71995 12.1378L4.03996 8.68218C3.92801 8.20196 3.58398 8.06598 3.16 8.05014Z" fill="#FAA61A"/>
</g>
<defs>
<clipPath id="clip0_2174_118389">
<rect width="24" height="24" fill="white"/>
</clipPath>
</defs>
</svg>
