<svg width="24" height="24" viewBox="0 0 24 24" fill="none" xmlns="http://www.w3.org/2000/svg">
<path fill-rule="evenodd" clip-rule="evenodd" d="M4.5 9.98263L4.5 15.0174C4.5 15.1921 4.59118 15.3541 4.74051 15.4448L9.5 18.3345L9.5 6.66555L4.74051 9.55524C4.59118 9.6459 4.5 9.80793 4.5 9.98263ZM3 15.0174C3 15.7162 3.36472 16.3643 3.96204 16.727L9.48102 20.0778C10.1474 20.4824 11 20.0026 11 19.223L11 5.77704C11 4.9974 10.1474 4.51764 9.48102 4.92225L3.96204 8.27306C3.36472 8.63572 3 9.28384 3 9.98263L3 15.0174Z" fill="white"/>
<path fill-rule="evenodd" clip-rule="evenodd" d="M14.0841 16.124C13.7394 15.8943 13.6463 15.4286 13.876 15.084C14.1953 14.6051 14.7501 13.7643 14.7501 12.5C14.7501 11.2357 14.1953 10.3949 13.876 9.91601C13.6463 9.57136 13.7394 9.10571 14.0841 8.87594C14.4287 8.64618 14.8944 8.73931 15.1241 9.08396L15.1292 9.09163C15.4791 9.61644 16.2501 10.7728 16.2501 12.5C16.2501 14.2272 15.4791 15.3835 15.1292 15.9083L15.1241 15.916C14.8944 16.2607 14.4287 16.3538 14.0841 16.124Z" fill="white"/>
<path fill-rule="evenodd" clip-rule="evenodd" d="M17.0841 19.124C16.7394 18.8943 16.6463 18.4286 16.876 18.084C17.5286 17.1051 18.7501 15.2643 18.7501 12.5C18.7501 9.73567 17.5286 7.89485 16.876 6.91601C16.6463 6.57136 16.7394 6.10571 17.0841 5.87594C17.4287 5.64618 17.8944 5.73931 18.1241 6.08396L18.1295 6.09206C18.8125 7.11651 20.2501 9.27283 20.2501 12.5C20.2501 15.7271 18.8125 17.8835 18.1295 18.9079L18.1241 18.916C17.8944 19.2607 17.4287 19.3538 17.0841 19.124Z" fill="white"/>
</svg>
