<svg width="24" height="24" viewBox="0 0 24 24" fill="none" xmlns="http://www.w3.org/2000/svg">
<path fill-rule="evenodd" clip-rule="evenodd" d="M12 2.25C17.3848 2.25 21.75 6.61522 21.75 12C21.75 17.3848 17.3848 21.75 12 21.75C6.61522 21.75 2.25 17.3848 2.25 12C2.25 6.61522 6.61522 2.25 12 2.25ZM20.25 12C20.25 7.44365 16.5563 3.75 12 3.75C7.44365 3.75 3.75 7.44365 3.75 12C3.75 16.5563 7.44365 20.25 12 20.25C16.5563 20.25 20.25 16.5563 20.25 12Z" fill="white"/>
<path fill-rule="evenodd" clip-rule="evenodd" d="M12 13.75C11.5858 13.75 11.25 13.4142 11.25 13L11.25 8C11.25 7.58579 11.5858 7.25 12 7.25C12.4142 7.25 12.75 7.58579 12.75 8L12.75 13C12.75 13.4142 12.4142 13.75 12 13.75Z" fill="white"/>
<path d="M11.25 16.25C11.25 15.8358 11.5858 15.5 12 15.5C12.4142 15.5 12.75 15.8358 12.75 16.25C12.75 16.6642 12.4142 17 12 17C11.5858 17 11.25 16.6642 11.25 16.25Z" fill="white"/>
</svg>
