<svg width="24" height="24" viewBox="0 0 24 24" fill="none" xmlns="http://www.w3.org/2000/svg">
<path d="M11.25 15.25C11.25 14.8358 11.5858 14.5 12 14.5C12.4142 14.5 12.75 14.8358 12.75 15.25C12.75 15.6642 12.4142 16 12 16C11.5858 16 11.25 15.6642 11.25 15.25Z" fill="white"/>
<path fill-rule="evenodd" clip-rule="evenodd" d="M9.58068 3.89829C10.6202 1.97519 13.3795 1.97518 14.4191 3.89829L21.0645 16.1923C22.0549 18.0246 20.7281 20.25 18.6453 20.25H5.35444C3.27163 20.25 1.94483 18.0246 2.93524 16.1923L9.58068 3.89829ZM13.0995 4.61157C12.627 3.73743 11.3727 3.73743 10.9002 4.61157L4.2548 16.9056C3.80462 17.7385 4.4077 18.75 5.35444 18.75H18.6453C19.592 18.75 20.1951 17.7385 19.7449 16.9056L13.0995 4.61157Z" fill="white"/>
<path fill-rule="evenodd" clip-rule="evenodd" d="M12 8.25C12.4142 8.25 12.75 8.58579 12.75 9V12.5C12.75 12.9142 12.4142 13.25 12 13.25C11.5858 13.25 11.25 12.9142 11.25 12.5V9C11.25 8.58579 11.5858 8.25 12 8.25Z" fill="white"/>
</svg>
