<svg width="801" height="148" viewBox="0 0 801 148" fill="none" xmlns="http://www.w3.org/2000/svg">
<path d="M-94.4229 134.212C-25.2324 87.4406 -3.5317 137.06 65.6587 90.2887C134.849 43.5173 113.148 -6.10218 182.319 -52.8601C251.49 -99.618 273.21 -50.0119 342.401 -96.7833C411.591 -143.555 389.89 -193.174 459.081 -239.946C528.271 -286.717 549.972 -237.097 619.182 -283.882C688.393 -330.667 666.672 -380.273 735.862 -427.044" stroke="#333333" stroke-opacity="0.1" stroke-miterlimit="10"/>
<path d="M24.7773 406.769C93.9678 359.997 115.624 409.516 184.815 362.745C254.005 315.974 232.349 266.455 301.519 219.697C370.69 172.939 392.366 222.444 461.557 175.673C530.747 128.902 509.09 79.3827 578.281 32.6114C647.471 -14.16 669.128 35.3588 738.338 -11.426C807.549 -58.2108 785.872 -107.716 855.063 -154.488" stroke="#333333" stroke-opacity="0.1" stroke-miterlimit="10"/>
<path d="M-137.734 35.1777C-68.5439 -11.5936 -46.8872 37.9252 22.3032 -8.84615C91.4936 -55.6175 69.837 -105.136 139.007 -151.894C208.178 -198.652 229.855 -149.147 299.045 -195.918C368.235 -242.69 346.579 -292.208 415.769 -338.98C484.96 -385.751 506.616 -336.232 575.827 -383.017C645.037 -429.802 623.36 -479.307 692.551 -526.079" stroke="#333333" stroke-opacity="0.1" stroke-miterlimit="10"/>
<path d="M-51.0654 233.353C18.125 186.582 39.7817 236.101 108.972 189.329C178.163 142.558 156.506 93.0389 225.676 46.281C294.847 -0.476874 316.524 49.0285 385.714 2.25715C454.904 -44.5142 433.248 -94.033 502.438 -140.804C571.629 -187.576 593.285 -138.057 662.496 -184.842C731.706 -231.627 710.029 -281.132 779.22 -327.903" stroke="#333333" stroke-opacity="0.1" stroke-miterlimit="10"/>
<path d="M68.0879 505.802C137.278 459.03 158.979 508.65 228.169 461.879C297.36 415.107 275.659 365.488 344.83 318.73C414 271.972 435.721 321.578 504.911 274.807C574.102 228.035 552.401 178.416 621.591 131.644C690.782 84.873 712.483 134.492 781.693 87.7076C850.903 40.9228 829.183 -8.68322 898.373 -55.4546" stroke="#333333" stroke-opacity="0.1" stroke-miterlimit="10"/>
<path d="M-159.44 -14.4443C-90.25 -61.2157 -68.5493 -11.5962 0.641163 -58.3676C69.8316 -105.139 48.1309 -154.758 117.301 -201.516C186.472 -248.274 208.193 -198.668 277.383 -245.44C346.573 -292.211 324.873 -341.83 394.063 -388.602C463.254 -435.373 484.954 -385.754 554.165 -432.538C623.375 -479.323 601.654 -528.929 670.845 -575.701" stroke="#333333" stroke-opacity="0.1" stroke-miterlimit="10"/>
<path d="M-72.7275 183.831C-3.5371 137.059 18.1196 186.578 87.31 139.807C156.5 93.0356 134.844 43.5167 204.014 -3.24119C273.185 -49.9991 294.861 -0.493708 364.052 -47.2651C433.242 -94.0364 411.586 -143.555 480.776 -190.327C549.966 -237.098 571.623 -187.579 640.834 -234.364C710.044 -281.149 688.367 -330.654 757.558 -377.426" stroke="#333333" stroke-opacity="0.1" stroke-miterlimit="10"/>
<path d="M46.4316 456.286C115.622 409.515 137.279 459.034 206.469 412.262C275.66 365.491 254.003 315.972 323.173 269.214C392.344 222.456 414.021 271.962 483.211 225.19C552.402 178.419 530.745 128.9 599.935 82.129C669.126 35.3576 690.782 84.8764 759.993 38.0916C829.203 -8.69322 807.526 -58.1986 876.717 -104.97" stroke="#333333" stroke-opacity="0.1" stroke-miterlimit="10"/>
<path d="M-116.084 84.6914C-46.8935 37.92 -25.2369 87.4389 43.9536 40.6675C113.144 -6.10384 91.4873 -55.6227 160.658 -102.381C229.828 -149.138 251.505 -99.6331 320.695 -146.404C389.886 -193.176 368.229 -242.695 437.42 -289.466C506.61 -336.237 528.267 -286.719 597.477 -333.503C666.687 -380.288 645.011 -429.794 714.201 -476.565" stroke="#333333" stroke-opacity="0.1" stroke-miterlimit="10"/>
<path d="M3.11523 357.247C72.3057 310.475 93.9624 359.994 163.153 313.223C232.343 266.451 210.687 216.932 279.857 170.175C349.028 123.417 370.704 172.922 439.895 126.151C509.085 79.3793 487.428 29.8605 556.619 -16.9108C625.809 -63.6822 647.466 -14.1634 716.676 -60.9482C785.887 -107.733 764.21 -157.238 833.401 -204.01" stroke="#333333" stroke-opacity="0.1" stroke-miterlimit="10"/>
<path d="M-29.417 282.868C39.7734 236.097 61.4301 285.616 130.621 238.844C199.811 192.073 178.154 142.554 247.325 95.7962C316.495 49.0383 338.172 98.5436 407.362 51.7723C476.553 5.00092 454.896 -44.5179 524.087 -91.2893C593.277 -138.061 614.934 -88.5418 684.144 -135.327C753.354 -182.111 731.678 -231.617 800.868 -278.388" stroke="#333333" stroke-opacity="0.1" stroke-miterlimit="10"/>
<path d="M89.7822 555.422C158.973 508.651 180.629 558.169 249.82 511.398C319.01 464.627 297.354 415.108 366.524 368.35C435.695 321.592 457.371 371.097 526.562 324.326C595.752 277.555 574.095 228.036 643.286 181.264C712.476 134.493 734.133 184.012 803.343 137.227C872.554 90.4423 850.877 40.9369 920.067 -5.83447" stroke="#333333" stroke-opacity="0.1" stroke-miterlimit="10"/>
<path d="M-170.272 -39.207C-101.082 -85.9784 -79.3813 -36.3589 -10.1909 -83.1303C58.9996 -129.902 37.2989 -179.521 106.469 -226.279C175.64 -273.037 197.361 -223.431 266.551 -270.202C335.741 -316.974 314.041 -366.593 383.231 -413.364C452.422 -460.136 474.122 -410.516 543.333 -457.301C612.543 -504.086 590.822 -553.692 660.013 -600.463" stroke="#333333" stroke-opacity="0.1" stroke-miterlimit="10"/>
<path d="M-83.5918 158.97C-14.4014 112.198 7.29936 161.818 76.4898 115.047C145.68 68.2751 123.98 18.6556 193.15 -28.1023C262.321 -74.8602 284.041 -25.2541 353.232 -72.0255C422.422 -118.797 400.721 -168.416 469.912 -215.188C539.102 -261.959 560.803 -212.34 630.013 -259.124C699.224 -305.909 677.503 -355.515 746.693 -402.287" stroke="#333333" stroke-opacity="0.1" stroke-miterlimit="10"/>
<path d="M35.6016 431.528C104.792 384.757 126.449 434.276 195.639 387.504C264.83 340.733 243.173 291.214 312.343 244.456C381.514 197.698 403.191 247.204 472.381 200.432C541.571 153.661 519.915 104.142 589.105 57.3709C658.296 10.5995 679.952 60.1184 749.163 13.3335C818.373 -33.4513 796.696 -82.9567 865.887 -129.728" stroke="#333333" stroke-opacity="0.1" stroke-miterlimit="10"/>
<path d="M-126.909 59.9355C-57.7187 13.1642 -36.062 62.683 33.1284 15.9117C102.319 -30.8597 80.6621 -80.3785 149.833 -127.136C219.003 -173.894 240.68 -124.389 309.87 -171.16C379.061 -217.932 357.404 -267.451 426.594 -314.222C495.785 -360.993 517.442 -311.474 586.652 -358.259C655.862 -405.044 634.186 -454.549 703.376 -501.321" stroke="#333333" stroke-opacity="0.1" stroke-miterlimit="10"/>
<path d="M-7.75488 332.387C61.4356 285.616 83.1363 335.235 152.327 288.464C221.517 241.693 199.816 192.073 268.987 145.315C338.158 98.5573 359.878 148.163 429.069 101.392C498.259 54.6206 476.558 5.00115 545.749 -41.7702C614.939 -88.5416 636.64 -38.9221 705.85 -85.7069C775.061 -132.492 753.34 -182.098 822.53 -228.869" stroke="#333333" stroke-opacity="0.1" stroke-miterlimit="10"/>
<path d="M-40.2334 258.109C28.957 211.338 50.6137 260.856 119.804 214.085C188.995 167.314 167.338 117.795 236.508 71.0369C305.679 24.279 327.356 73.7844 396.546 27.013C465.736 -19.7584 444.08 -69.2772 513.27 -116.049C582.461 -162.82 604.117 -113.301 673.328 -160.086C742.538 -206.871 720.861 -256.376 790.052 -303.147" stroke="#333333" stroke-opacity="0.1" stroke-miterlimit="10"/>
<path d="M78.959 530.664C148.149 483.893 169.806 533.412 238.997 486.64C308.187 439.869 286.53 390.35 355.701 343.592C424.871 296.834 446.548 346.34 515.738 299.568C584.929 252.797 563.272 203.278 632.463 156.507C701.653 109.735 723.31 159.254 792.52 112.469C861.73 65.6845 840.054 16.1791 909.244 -30.5923" stroke="#333333" stroke-opacity="0.1" stroke-miterlimit="10"/>
<path d="M-148.563 10.4114C-79.373 -36.36 -57.7163 13.1589 11.4741 -33.6125C80.6645 -80.3839 59.0078 -129.903 128.178 -176.661C197.349 -223.419 219.026 -173.913 288.216 -220.685C357.406 -267.456 335.75 -316.975 404.94 -363.746C474.131 -410.517 495.787 -360.999 564.998 -407.783C634.208 -454.568 612.531 -504.074 681.722 -550.845" stroke="#333333" stroke-opacity="0.1" stroke-miterlimit="10"/>
<path d="M-61.8965 208.589C7.29396 161.818 28.9506 211.336 98.1411 164.565C167.332 117.794 145.675 68.2748 214.845 21.5169C284.016 -25.241 305.693 24.2643 374.883 -22.507C444.073 -69.2784 422.417 -118.797 491.607 -165.569C560.798 -212.34 582.454 -162.821 651.665 -209.606C720.875 -256.391 699.198 -305.896 768.389 -352.667" stroke="#333333" stroke-opacity="0.1" stroke-miterlimit="10"/>
<path d="M57.2627 481.044C126.453 434.273 148.154 483.892 217.344 437.121C286.535 390.349 264.834 340.73 334.005 293.972C403.175 247.214 424.896 296.82 494.086 250.049C563.277 203.277 541.576 153.658 610.766 106.887C679.957 60.1152 701.657 109.735 770.868 62.9498C840.078 16.165 818.358 -33.441 887.548 -80.2124" stroke="#333333" stroke-opacity="0.1" stroke-miterlimit="10"/>
<path d="M-105.253 109.447C-36.0625 62.6759 -14.4058 112.195 54.7846 65.4234C123.975 18.652 102.318 -30.8668 171.489 -77.6247C240.659 -124.383 262.336 -74.8773 331.526 -121.649C400.717 -168.42 379.06 -217.939 448.251 -264.71C517.441 -311.482 539.098 -261.963 608.308 -308.748C677.519 -355.532 655.842 -405.038 725.032 -451.809" stroke="#333333" stroke-opacity="0.1" stroke-miterlimit="10"/>
<path d="M13.9463 382.004C83.1367 335.233 104.793 384.752 173.984 337.981C243.174 291.209 221.518 241.69 290.688 194.932C359.859 148.174 381.535 197.68 450.726 150.909C519.916 104.137 498.259 54.6183 567.45 7.84697C636.64 -38.9244 658.297 10.5944 727.507 -36.1904C796.718 -82.9752 775.041 -132.481 844.232 -179.252" stroke="#333333" stroke-opacity="0.1" stroke-miterlimit="10"/>
<path d="M-18.5859 307.628C50.6045 260.857 72.3052 310.476 141.496 263.705C210.686 216.933 188.985 167.314 258.156 120.556C327.326 73.798 349.047 123.404 418.238 76.6327C487.428 29.8613 465.727 -19.7581 534.918 -66.5295C604.108 -113.301 625.809 -63.6814 695.019 -110.466C764.23 -157.251 742.509 -206.857 811.699 -253.628" stroke="#333333" stroke-opacity="0.1" stroke-miterlimit="10"/>
<path d="M100.621 580.188C169.812 533.417 191.468 582.935 260.659 536.164C329.849 489.393 308.192 439.874 377.363 393.116C446.533 346.358 468.21 395.863 537.401 349.092C606.591 302.321 584.934 252.802 654.125 206.031C723.315 159.259 744.972 208.778 814.182 161.993C883.393 115.208 861.716 65.703 930.906 18.9316" stroke="#333333" stroke-opacity="0.1" stroke-miterlimit="10"/>
</svg>
