<svg width="24" height="24" viewBox="0 0 24 24" fill="none" xmlns="http://www.w3.org/2000/svg">
<path fill-rule="evenodd" clip-rule="evenodd" d="M18 15.75C16.7574 15.75 15.75 16.7574 15.75 18V20C15.75 20.4142 15.4142 20.75 15 20.75C14.5858 20.75 14.25 20.4142 14.25 20V18C14.25 15.9289 15.9289 14.25 18 14.25H20C20.4142 14.25 20.75 14.5858 20.75 15C20.75 15.4142 20.4142 15.75 20 15.75H18Z" fill="white"/>
<path fill-rule="evenodd" clip-rule="evenodd" d="M8.25 18C8.25 16.7574 7.24264 15.75 6 15.75L4 15.75C3.58579 15.75 3.25 15.4142 3.25 15C3.25 14.5858 3.58579 14.25 4 14.25L6 14.25C8.07107 14.25 9.75 15.9289 9.75 18L9.75 20C9.75 20.4142 9.41421 20.75 9 20.75C8.58579 20.75 8.25 20.4142 8.25 20L8.25 18Z" fill="white"/>
<path fill-rule="evenodd" clip-rule="evenodd" d="M6 8.25C7.24264 8.25 8.25 7.24264 8.25 6L8.25 4C8.25 3.58579 8.58579 3.25 9 3.25C9.41421 3.25 9.75 3.58579 9.75 4L9.75 6C9.75 8.07107 8.07107 9.75 6 9.75L4 9.75C3.58579 9.75 3.25 9.41421 3.25 9C3.25 8.58579 3.58579 8.25 4 8.25L6 8.25Z" fill="white"/>
<path fill-rule="evenodd" clip-rule="evenodd" d="M15.75 6C15.75 7.24264 16.7574 8.25 18 8.25L20 8.25C20.4142 8.25 20.75 8.58579 20.75 9C20.75 9.41421 20.4142 9.75 20 9.75L18 9.75C15.9289 9.75 14.25 8.07107 14.25 6L14.25 4C14.25 3.58579 14.5858 3.25 15 3.25C15.4142 3.25 15.75 3.58579 15.75 4L15.75 6Z" fill="white"/>
</svg>
